<?xml version="1.0" encoding="utf-8"?><svg xmlns="http://www.w3.org/2000/svg" xmlns:xlink="http://www.w3.org/1999/xlink"><symbol viewBox="0 0 169.333 169.333" id="001-instagram-logo" xmlns="http://www.w3.org/2000/svg"><path d="M122.407 0h-75.75C20.926 0 0 20.932 0 46.656v75.75c0 25.73 20.927 46.656 46.656 46.656h75.75c25.73 0 46.657-20.931 46.657-46.655v-75.75C169.063 20.931 148.136 0 122.407 0zm31.656 122.407c0 17.457-14.199 31.656-31.656 31.656h-75.75c-17.46 0-31.657-14.199-31.657-31.656v-75.75C15 29.202 29.197 15 46.656 15h75.75c17.454 0 31.657 14.203 31.657 31.656z"/><path d="M84.53 40.97c-24.02 0-43.56 19.54-43.56 43.56 0 24.022 19.54 43.563 43.56 43.563 24.022 0 43.563-19.54 43.563-43.562 0-24.02-19.54-43.562-43.562-43.562zm0 72.123c-15.749 0-28.56-12.812-28.56-28.562 0-15.75 12.811-28.562 28.56-28.562 15.751 0 28.563 12.812 28.563 28.562 0 15.75-12.812 28.562-28.562 28.562zm45.391-84.843a11.05 11.05 0 00-7.77 3.22 11.05 11.05 0 00-3.23 7.78c0 2.89 1.177 5.729 3.23 7.78a11.078 11.078 0 007.77 3.22 11.1 11.1 0 007.782-3.22 11.1 11.1 0 003.218-7.78c0-2.9-1.172-5.74-3.218-7.78a11.057 11.057 0 00-7.782-3.22z"/></symbol><symbol viewBox="0 0 513.333 389.333" id="002-youtube" xmlns="http://www.w3.org/2000/svg"><path d="M334.807 171.661l-113.114-61.896c-6.5-3.557-14.188-3.421-20.562.355-6.382 3.781-10.188 10.459-10.188 17.875v122.718c0 7.38 3.781 14.047 10.12 17.834 3.306 1.974 6.973 2.97 10.65 2.97 3.37 0 6.746-.834 9.85-2.507l113.12-60.822a20.78 20.78 0 0010.937-18.224 20.756 20.756 0 00-10.813-18.303zm-113.859 63.615v-91.719l84.541 46.26z"/><path d="M508.235 92.193l-.022-.234c-.437-4.12-4.749-40.776-22.573-59.423-20.599-21.927-43.947-24.593-55.176-25.87a104.65 104.65 0 01-2.547-.306l-.89-.095C359.339 1.35 257.115.677 256.088.672L256 .667l-.088.005c-1.027.005-103.25.677-171.543 5.593l-.905.095c-.724.099-1.527.187-2.396.29-11.104 1.282-34.204 3.949-54.86 26.673C9.235 51.765 4.328 87.64 3.823 91.672l-.058.521C3.615 93.912 0 134.735 0 175.72v38.312c0 40.985 3.615 81.808 3.765 83.526l.027.26c.432 4.052 4.744 40.038 22.484 58.688 19.37 21.198 43.855 24 57.03 25.511 2.08.239 3.877.437 5.096.656l1.186.161c39.079 3.72 161.615 5.552 166.813 5.626l.156.005.156-.005c1.022-.006 103.24-.673 170.927-5.6l.896-.094c.855-.11 1.813-.213 2.87-.322 11.037-1.172 34.015-3.604 54.386-26.022 16.973-18.448 21.885-54.317 22.385-58.342l.058-.527c.15-1.719 3.77-42.536 3.77-83.521V175.72c-.005-40.984-3.62-81.807-3.77-83.526zm-26.24 121.838c0 37.933-3.312 77-3.626 80.584-1.27 9.88-6.448 32.578-14.718 41.562-12.75 14.026-25.844 15.421-35.406 16.432-1.157.12-2.229.24-3.198.36-65.468 4.734-163.834 5.458-168.364 5.484-5.084-.073-125.823-1.917-163.714-5.437-1.942-.319-4.037-.563-6.25-.813-11.214-1.282-26.568-3.042-38.37-16.026l-.28-.297c-8.126-8.464-13.152-29.687-14.429-41.145-.238-2.714-3.635-42.24-3.635-80.704v-38.312c0-37.891 3.302-76.916 3.626-80.579 1.52-11.635 6.79-32.952 14.718-41.572 13.14-14.453 26.995-16.052 36.156-17.115.875-.098 1.692-.193 2.448-.292 66.422-4.754 165.49-5.464 169.047-5.489 3.557.021 102.588.735 168.421 5.49.808.103 1.694.202 2.642.311 9.426 1.074 23.672 2.699 36.744 16.647l.125.13c8.125 8.463 13.15 30.057 14.428 41.75.228 2.557 3.635 42.172 3.635 80.719z"/></symbol><symbol viewBox="0 0 512 512" id="003-facebook" xmlns="http://www.w3.org/2000/svg"><path d="M75 512h167V330h-60v-60h60v-75c0-41.355 33.645-75 75-75h75v60h-60c-16.541 0-30 13.459-30 30v60h87.292l-10 60H302v182h135c41.355 0 75-33.645 75-75V75c0-41.355-33.645-75-75-75H75C33.645 0 0 33.645 0 75v362c0 41.355 33.645 75 75 75zM30 75c0-24.812 20.188-45 45-45h362c24.812 0 45 20.188 45 45v362c0 24.812-20.188 45-45 45H332V360h72.708l20-120H332v-30h90V90H317c-57.901 0-105 47.099-105 105v45h-60v120h60v122H75c-24.812 0-45-20.188-45-45z"/></symbol><symbol viewBox="0 0 2131 692" id="header__bg" xmlns="http://www.w3.org/2000/svg"><path d="M1065.5 0C1653.96 0 2131 217 2131 386c0 168.998-477.04 306-1065.5 306S0 554.998 0 386C0 217 477.04 0 1065.5 0z"/></symbol><symbol viewBox="0 0 37 37" id="header__logo-icon" xmlns="http://www.w3.org/2000/svg"><defs><filter id="ea" width="57" height="58" x="-10" y="-11" filterUnits="userSpaceOnUse"><feOffset dy="1" in="SourceGraphic" result="FeOffset1133Out"/><feGaussianBlur in="FeOffset1133Out" result="FeGaussianBlur1134Out" stdDeviation="0.4 0.4"/></filter><filter id="ed" width="29" height="30" x="4" y="3" filterUnits="userSpaceOnUse"><feOffset dy="1" in="SourceGraphic" result="FeOffset1151Out"/><feGaussianBlur in="FeOffset1151Out" result="FeGaussianBlur1152Out" stdDeviation="0.4 0.4"/></filter><mask id="eb" width="2" height="2" x="-1" y="-1"><path d="M1 0h35v35H1z"/><path d="M18.5 0C28.165 0 36 7.834 36 17.5 36 27.163 28.165 35 18.5 35S1 27.163 1 17.5C1 7.834 8.835 0 18.5 0z"/></mask><mask id="ee" width="2" height="2" x="-1" y="-1"><path d="M15 14h7v7h-7z"/><path d="M18.5 14a3.5 3.5 0 110 6.999 3.5 3.5 0 010-7z"/></mask><clipPath id="ec"><path d="M18.5 0C28.165 0 36 7.834 36 17.5 36 27.163 28.165 35 18.5 35S1 27.163 1 17.5C1 7.834 8.835 0 18.5 0z"/></clipPath></defs><g filter="url(#ea)"><path d="M18.5 0C28.165 0 36 7.834 36 17.5 36 27.163 28.165 35 18.5 35S1 27.163 1 17.5C1 7.834 8.835 0 18.5 0z" mask="url(#eb)"/><path fill-opacity=".28" d="M18.5 0C28.165 0 36 7.834 36 17.5 36 27.163 28.165 35 18.5 35S1 27.163 1 17.5C1 7.834 8.835 0 18.5 0z"/></g><path d="M18.5 0C28.165 0 36 7.834 36 17.5 36 27.163 28.165 35 18.5 35S1 27.163 1 17.5C1 7.834 8.835 0 18.5 0z" clip-path="url(#ec)"/><g filter="url(#ed)"><path d="M18.5 14a3.5 3.5 0 110 6.999 3.5 3.5 0 010-7z" mask="url(#ee)"/><path fill-opacity=".28" d="M18.5 14a3.5 3.5 0 110 6.999 3.5 3.5 0 010-7z"/></g><path d="M18.5 14a3.5 3.5 0 110 6.999 3.5 3.5 0 010-7z"/></symbol></svg>