<svg width="40" height="40" viewBox="0 0 40 40" fill="none" xmlns="http://www.w3.org/2000/svg">
<path d="M34.5998 6.79999H5.3998C5.24067 6.79999 5.08806 6.8632 4.97554 6.97572C4.86302 7.08825 4.7998 7.24086 4.7998 7.39999V26.6C4.7998 26.7591 4.86302 26.9117 4.97554 27.0243C5.08806 27.1368 5.24067 27.2 5.3998 27.2H13.7638L7.3638 33.6C7.25144 33.7125 7.18833 33.865 7.18833 34.024C7.18833 34.183 7.25144 34.3355 7.3638 34.448L9.9518 37.036C10.0643 37.1483 10.2168 37.2115 10.3758 37.2115C10.5348 37.2115 10.6873 37.1483 10.7998 37.036L20.6358 27.2H34.5998C34.7589 27.2 34.9115 27.1368 35.0241 27.0243C35.1366 26.9117 35.1998 26.7591 35.1998 26.6V7.39999C35.1998 7.24086 35.1366 7.08825 35.0241 6.97572C34.9115 6.8632 34.7589 6.79999 34.5998 6.79999ZM10.3998 35.752L8.6478 34L22.5678 20.08L25.5038 18.88L24.3038 21.816L10.3998 35.752ZM33.9998 26H21.8358L25.2438 22.592C25.3004 22.5361 25.3453 22.4695 25.3758 22.396L27.1558 18.028C27.2093 17.916 27.2267 17.7902 27.2057 17.6679C27.1848 17.5457 27.1264 17.4329 27.0386 17.3451C26.9509 17.2574 26.8381 17.199 26.7158 17.1781C26.5936 17.1571 26.4678 17.1745 26.3558 17.228L21.9998 19.024C21.9264 19.0547 21.8598 19.0995 21.8038 19.156L14.9638 26H5.9998V7.99999H33.9998V26Z" fill="black"/>
<path d="M29.5998 16C30.1536 16 30.6949 15.8358 31.1554 15.5281C31.6159 15.2205 31.9747 14.7832 32.1867 14.2715C32.3986 13.7599 32.454 13.1969 32.346 12.6538C32.238 12.1106 31.9713 11.6117 31.5797 11.2201C31.1881 10.8285 30.6892 10.5619 30.1461 10.4538C29.6029 10.3458 29.0399 10.4012 28.5283 10.6132C28.0167 10.8251 27.5794 11.184 27.2717 11.6444C26.964 12.1049 26.7998 12.6462 26.7998 13.2C26.7998 13.9426 27.0948 14.6548 27.6199 15.1799C28.145 15.705 28.8572 16 29.5998 16ZM29.5998 11.6C29.9163 11.6 30.2256 11.6939 30.4887 11.8697C30.7518 12.0455 30.9569 12.2954 31.078 12.5877C31.1991 12.8801 31.2308 13.2018 31.1691 13.5122C31.1073 13.8225 30.9549 14.1076 30.7312 14.3314C30.5074 14.5552 30.2223 14.7075 29.912 14.7693C29.6016 14.831 29.2799 14.7993 28.9875 14.6782C28.6952 14.5571 28.4453 14.3521 28.2695 14.0889C28.0936 13.8258 27.9998 13.5165 27.9998 13.2C27.9998 12.7757 28.1684 12.3687 28.4684 12.0687C28.7685 11.7686 29.1755 11.6 29.5998 11.6Z" fill="black"/>
<path d="M8.39993 23.6H13.6439C13.8031 23.6 13.9557 23.5368 14.0682 23.4242C14.1807 23.3117 14.2439 23.1591 14.2439 23C14.2439 22.8409 14.1807 22.6882 14.0682 22.5757C13.9557 22.4632 13.8031 22.4 13.6439 22.4H9.50793L16.5079 11.696L19.8959 16.876C19.9377 16.9448 19.9928 17.0046 20.0581 17.0516C20.1234 17.0987 20.1975 17.1322 20.276 17.15C20.3545 17.1679 20.4358 17.1698 20.515 17.1555C20.5943 17.1413 20.6698 17.1113 20.7372 17.0673C20.8046 17.0232 20.8625 16.9661 20.9073 16.8992C20.9522 16.8324 20.9831 16.7572 20.9983 16.6781C21.0134 16.5991 21.0126 16.5178 20.9957 16.4391C20.9788 16.3603 20.9462 16.2858 20.8999 16.22L17.0119 10.272C16.9539 10.1934 16.8783 10.1296 16.7911 10.0855C16.7039 10.0415 16.6076 10.0186 16.5099 10.0186C16.4123 10.0186 16.316 10.0415 16.2288 10.0855C16.1416 10.1296 16.0659 10.1934 16.0079 10.272L7.89593 22.672C7.83676 22.7626 7.8032 22.8676 7.79883 22.9757C7.79446 23.0839 7.81942 23.1912 7.87108 23.2863C7.92274 23.3815 7.99917 23.4608 8.09228 23.5161C8.18538 23.5713 8.29169 23.6003 8.39993 23.6Z" fill="black"/>
</svg>
