<svg width="20" height="20" viewBox="0 0 20 20" fill="none" xmlns="http://www.w3.org/2000/svg">
<path d="M9.99979 3.57145C8.67371 3.57145 7.40194 4.09823 6.46426 5.03591C5.52657 5.97359 4.99979 7.24536 4.99979 8.57145V12.1429C4.99979 12.7112 4.77403 13.2562 4.37216 13.6581C3.9703 14.06 3.42525 14.2857 2.85693 14.2857H17.1426C16.5743 14.2857 16.0293 14.06 15.6274 13.6581C15.2256 13.2562 14.9998 12.7112 14.9998 12.1429V8.57145C14.9998 7.24536 14.473 5.97359 13.5353 5.03591C12.5976 4.09823 11.3259 3.57145 9.99979 3.57145ZM9.99979 3.57145V1.42859M11.2355 17.1429C11.1099 17.3594 10.9297 17.5391 10.7128 17.664C10.4959 17.7889 10.2501 17.8546 9.99979 17.8546C9.74952 17.8546 9.50364 17.7889 9.28677 17.664C9.0699 17.5391 8.88966 17.3594 8.76408 17.1429" stroke="#1A1A1A" stroke-width="1.5" stroke-linecap="round" stroke-linejoin="round"/>
</svg>
