<svg width="34" height="36" viewBox="0 0 34 36" fill="none" xmlns="http://www.w3.org/2000/svg">
<path d="M9.86884 14.9166H5.97777C5.64734 14.9166 5.37988 15.1841 5.37988 15.5145V19.4056C5.37988 19.7356 5.64734 20.0035 5.97777 20.0035H9.86884C10.1993 20.0035 10.4667 19.7356 10.4667 19.4056V15.5145C10.4667 15.1845 10.1993 14.9166 9.86884 14.9166ZM9.27095 18.8077H6.57566V16.1124H9.27095V18.8077Z" fill="black"/>
<path d="M18.944 14.9166H15.053C14.7225 14.9166 14.4551 15.1841 14.4551 15.5145V19.4056C14.4551 19.7356 14.7225 20.0035 15.053 20.0035H18.944C19.2741 20.0035 19.5419 19.7356 19.5419 19.4056V15.5145C19.5419 15.1845 19.2741 14.9166 18.944 14.9166ZM18.3461 18.8077H15.6509V16.1124H18.3461V18.8077Z" fill="black"/>
<path d="M27.739 14.9166H23.8479C23.5179 14.9166 23.25 15.1841 23.25 15.5145V19.4056C23.25 19.7356 23.5179 20.0035 23.8479 20.0035H27.739C28.069 20.0035 28.3368 19.7356 28.3368 19.4056V15.5145C28.3368 15.1845 28.069 14.9166 27.739 14.9166ZM27.1411 18.8077H24.4458V16.1124H27.1411V18.8077Z" fill="black"/>
<path d="M9.86884 23.7798H5.97777C5.64734 23.7798 5.37988 24.0476 5.37988 24.3777V28.2687C5.37988 28.5988 5.64734 28.8666 5.97777 28.8666H9.86884C10.1993 28.8666 10.4667 28.5988 10.4667 28.2687V24.3777C10.4667 24.0476 10.1993 23.7798 9.86884 23.7798ZM9.27095 27.6708H6.57566V24.9756H9.27095V27.6708Z" fill="black"/>
<path d="M18.944 23.7798H15.053C14.7225 23.7798 14.4551 24.0476 14.4551 24.3777V28.2687C14.4551 28.5988 14.7225 28.8666 15.053 28.8666H18.944C19.2741 28.8666 19.5419 28.5988 19.5419 28.2687V24.3777C19.5419 24.0476 19.2741 23.7798 18.944 23.7798ZM18.3461 27.6708H15.6509V24.9756H18.3461V27.6708Z" fill="black"/>
<path d="M27.739 23.7798H23.8479C23.5179 23.7798 23.25 24.0476 23.25 24.3777V28.2687C23.25 28.5988 23.5179 28.8666 23.8479 28.8666H27.739C28.069 28.8666 28.3368 28.5988 28.3368 28.2687V24.3777C28.3368 24.0476 28.069 23.7798 27.739 23.7798ZM27.1411 27.6708H24.4458V24.9756H27.1411V27.6708Z" fill="black"/>
<path d="M32.475 3.33874H28.5261C28.521 3.33874 28.5166 3.33994 28.5114 3.34034V2.54395C28.5114 1.24134 27.4519 0.181885 26.1493 0.181885C24.8467 0.181885 23.7873 1.24174 23.7873 2.54395V3.33874H19.3378V2.54395C19.3378 1.24134 18.2783 0.181885 16.9757 0.181885C15.6731 0.181885 14.6136 1.24174 14.6136 2.54395V3.33874H10.1638V2.54395C10.1638 1.24134 9.10429 0.181885 7.80169 0.181885C6.49909 0.181885 5.43963 1.24174 5.43963 2.54395V3.33914C5.43763 3.33914 5.43564 3.33874 5.43365 3.33874H1.48558C1.15515 3.33874 0.887695 3.6062 0.887695 3.93663V34.9256C0.887695 35.2557 1.15515 35.5235 1.48558 35.5235H32.475C32.805 35.5235 33.0729 35.2557 33.0729 34.9256V3.93663C33.0729 3.6062 32.805 3.33874 32.475 3.33874ZM24.983 2.54395C24.983 1.90062 25.506 1.37766 26.1493 1.37766C26.7927 1.37766 27.3156 1.90062 27.3156 2.54395V5.8431C27.3156 6.48603 26.7927 7.00938 26.1493 7.00938C25.506 7.00938 24.983 6.48643 24.983 5.8431V2.54395ZM16.9757 1.37766C17.6186 1.37766 18.142 1.90062 18.142 2.54395V5.8431C18.142 6.48603 17.619 7.00938 16.9757 7.00938C16.3324 7.00938 15.8094 6.48643 15.8094 5.8431V3.99243C15.811 3.9737 15.815 3.95576 15.815 3.93623C15.815 3.9167 15.811 3.89876 15.8094 3.88003V2.54395C15.8094 1.90062 16.3324 1.37766 16.9757 1.37766ZM6.63541 2.54395C6.63541 1.90062 7.15836 1.37766 7.80169 1.37766C8.44462 1.37766 8.96797 1.90062 8.96797 2.54395V5.8431C8.96797 6.48603 8.44502 7.00938 7.80169 7.00938C7.15836 7.00938 6.63541 6.48643 6.63541 5.8431V2.54395ZM31.8771 34.3278H2.08347V4.53452H5.43365C5.43564 4.53452 5.43763 4.53412 5.43963 4.53412V5.8435C5.43963 7.1461 6.49949 8.20556 7.80169 8.20556C9.10389 8.20556 10.1638 7.1461 10.1638 5.8435V4.53492H14.6136V5.8435C14.6136 7.1461 15.6735 8.20556 16.9757 8.20556C18.2779 8.20556 19.3378 7.1461 19.3378 5.8435V4.53492H23.7873V5.8435C23.7873 7.1461 24.8467 8.20556 26.1493 8.20556C27.4519 8.20556 28.5114 7.1461 28.5114 5.8435V4.53293C28.5166 4.53293 28.521 4.53452 28.5261 4.53452H31.8771V34.3278Z" fill="black"/>
</svg>
