<svg width="45" height="24" viewBox="0 0 45 24" fill="none" xmlns="http://www.w3.org/2000/svg">
<g clip-path="url(#clip0)">
<path d="M44.6625 21.3333C45.225 22.1111 45.1125 23.1111 44.4375 23.6667C43.65 24.2222 42.525 24.1111 41.9625 23.4444L38.025 18.4444L34.2 23.3333C33.6375 24.1111 32.5125 24.1111 31.725 23.5556C30.9375 23 30.825 22 31.3875 21.2222L35.8875 15.4444L31.3875 9.66667C30.825 8.88889 31.05 7.77778 31.725 7.22222C32.5125 6.66667 33.6375 6.88889 34.2 7.55556L38.025 12.5556L41.9625 7.77778C42.525 7 43.5375 6.88889 44.4375 7.44444C45.225 8 45.225 9.11111 44.6625 9.88889L40.275 15.5556L44.6625 21.3333ZM24.1875 20.6667C21.2625 20.6667 18.9 18.4444 18.9 15.5556C18.9 12.7778 21.2625 10.4444 24.1875 10.4444C27.1125 10.4444 29.475 12.7778 29.475 15.5556C29.3625 18.4444 27 20.6667 24.1875 20.6667ZM8.6625 20.6667C5.7375 20.6667 3.375 18.4444 3.375 15.5556C3.375 12.7778 5.7375 10.4444 8.6625 10.4444C11.5875 10.4444 13.95 12.7778 13.95 15.5556C13.95 18.4444 11.5875 20.6667 8.6625 20.6667ZM24.1875 7.11111C20.925 7.11111 18 8.88889 16.5375 11.5556C15.075 8.88889 12.15 7.11111 8.775 7.11111C6.75 7.11111 4.95 7.77778 3.4875 8.77778V1.66667C3.4875 0.777778 2.7 0 1.8 0C0.7875 0 0 0.777778 0 1.66667V15.6667C0.1125 20.3333 3.9375 24 8.6625 24C12.0375 24 14.9625 22.1111 16.425 19.4444C17.8875 22.1111 20.8125 24 24.075 24C28.9125 24 32.85 20.2222 32.85 15.4444C32.9625 10.8889 29.025 7.11111 24.1875 7.11111Z" fill="black"/>
</g>
<defs>
<clipPath id="clip0">
<rect width="45" height="24" fill="white"/>
</clipPath>
</defs>
</svg>
