<svg width="20" height="20" viewBox="0 0 20 20" fill="none" xmlns="http://www.w3.org/2000/svg">
<path d="M12.8569 16.4286V5C12.8569 4.62112 12.7064 4.25775 12.4385 3.98985C12.1706 3.72194 11.8072 3.57143 11.4284 3.57143H8.57122C8.19234 3.57143 7.82898 3.72194 7.56107 3.98985C7.29316 4.25775 7.14265 4.62112 7.14265 5V16.4286M4.2855 6.42857H15.7141C16.5031 6.42857 17.1426 7.06816 17.1426 7.85714V15C17.1426 15.789 16.5031 16.4286 15.7141 16.4286H4.2855C3.49653 16.4286 2.85693 15.789 2.85693 15V7.85714C2.85693 7.06816 3.49653 6.42857 4.2855 6.42857Z" stroke="black" stroke-linecap="round" stroke-linejoin="round"/>
</svg>
