<svg width="40" height="40" viewBox="0 0 40 40" fill="none" xmlns="http://www.w3.org/2000/svg">
<path d="M8.14307 6.14282C7.0385 6.14282 6.14307 7.03825 6.14307 8.14282H8.14307V8.14282V6.14282ZM11.8574 6.14282H8.14307V8.14282H11.8574V6.14282ZM13.8574 8.14282C13.8574 7.03825 12.9619 6.14282 11.8574 6.14282V8.14282H11.8574H13.8574ZM13.8574 11.8571V8.14282H11.8574V11.8571H13.8574ZM11.8574 13.8571C12.9619 13.8571 13.8574 12.9617 13.8574 11.8571H11.8574V11.8571V13.8571ZM8.14307 13.8571H11.8574V11.8571H8.14307V13.8571ZM6.14307 11.8571C6.14307 12.9617 7.0385 13.8571 8.14307 13.8571V11.8571H8.14307H6.14307ZM6.14307 8.14282V11.8571H8.14307V8.14282H6.14307ZM8.14307 16.1428C7.0385 16.1428 6.14307 17.0382 6.14307 18.1428H8.14307V18.1428V16.1428ZM11.8574 16.1428H8.14307V18.1428H11.8574V16.1428ZM13.8574 18.1428C13.8574 17.0382 12.9619 16.1428 11.8574 16.1428V18.1428H11.8574H13.8574ZM13.8574 21.8571V18.1428H11.8574V21.8571H13.8574ZM11.8574 23.8571C12.9619 23.8571 13.8574 22.9617 13.8574 21.8571H11.8574V21.8571V23.8571ZM8.14307 23.8571H11.8574V21.8571H8.14307V23.8571ZM6.14307 21.8571C6.14307 22.9617 7.0385 23.8571 8.14307 23.8571V21.8571H8.14307H6.14307ZM6.14307 18.1428V21.8571H8.14307V18.1428H6.14307ZM8.14307 28.1428V28.1428V26.1428C7.0385 26.1428 6.14307 27.0382 6.14307 28.1428H8.14307ZM8.14307 31.8571V28.1428H6.14307V31.8571H8.14307ZM8.14307 31.8571H8.14307H6.14307C6.14307 32.9617 7.0385 33.8571 8.14307 33.8571V31.8571ZM11.8574 31.8571H8.14307V33.8571H11.8574V31.8571ZM11.8574 31.8571V33.8571C12.9619 33.8571 13.8574 32.9617 13.8574 31.8571H11.8574ZM11.8574 28.1428V31.8571H13.8574V28.1428H11.8574ZM11.8574 28.1428H11.8574H13.8574C13.8574 27.0383 12.9619 26.1428 11.8574 26.1428V28.1428ZM8.14307 28.1428H11.8574V26.1428H8.14307V28.1428ZM18.1431 6.14282C17.0385 6.14282 16.1431 7.03826 16.1431 8.14282H18.1431V8.14282V6.14282ZM21.8574 6.14282H18.1431V8.14282H21.8574V6.14282ZM23.8574 8.14282C23.8574 7.03825 22.9619 6.14282 21.8574 6.14282V8.14282H21.8574H23.8574ZM23.8574 11.8571V8.14282H21.8574V11.8571H23.8574ZM21.8574 13.8571C22.9619 13.8571 23.8574 12.9617 23.8574 11.8571H21.8574V11.8571V13.8571ZM18.1431 13.8571H21.8574V11.8571H18.1431V13.8571ZM16.1431 11.8571C16.1431 12.9617 17.0385 13.8571 18.1431 13.8571V11.8571H18.1431H16.1431ZM16.1431 8.14282V11.8571H18.1431V8.14282H16.1431ZM18.1431 18.1428V18.1428V16.1428C17.0385 16.1428 16.1431 17.0382 16.1431 18.1428H18.1431ZM18.1431 21.8571V18.1428H16.1431V21.8571H18.1431ZM18.1431 21.8571H18.1431H16.1431C16.1431 22.9617 17.0385 23.8571 18.1431 23.8571V21.8571ZM21.8574 21.8571H18.1431V23.8571H21.8574V21.8571ZM21.8574 21.8571V21.8571V23.8571C22.9619 23.8571 23.8574 22.9617 23.8574 21.8571H21.8574ZM21.8574 18.1428V21.8571H23.8574V18.1428H21.8574ZM21.8574 18.1428H21.8574H23.8574C23.8574 17.0383 22.9619 16.1428 21.8574 16.1428V18.1428ZM18.1431 18.1428H21.8574V16.1428H18.1431V18.1428ZM18.1431 26.1428C17.0385 26.1428 16.1431 27.0382 16.1431 28.1428H18.1431V28.1428V26.1428ZM21.8574 26.1428H18.1431V28.1428H21.8574V26.1428ZM23.8574 28.1428C23.8574 27.0383 22.9619 26.1428 21.8574 26.1428V28.1428H21.8574H23.8574ZM23.8574 31.8571V28.1428H21.8574V31.8571H23.8574ZM21.8574 33.8571C22.9619 33.8571 23.8574 32.9617 23.8574 31.8571H21.8574V33.8571ZM18.1431 33.8571H21.8574V31.8571H18.1431V33.8571ZM16.1431 31.8571C16.1431 32.9617 17.0385 33.8571 18.1431 33.8571V31.8571H18.1431H16.1431ZM16.1431 28.1428V31.8571H18.1431V28.1428H16.1431ZM28.1431 8.14282V8.14282V6.14282C27.0385 6.14282 26.1431 7.03825 26.1431 8.14282H28.1431ZM28.1431 11.8571V8.14282H26.1431V11.8571H28.1431ZM28.1431 11.8571H28.1431H26.1431C26.1431 12.9617 27.0385 13.8571 28.1431 13.8571V11.8571ZM31.8574 11.8571H28.1431V13.8571H31.8574V11.8571ZM31.8574 11.8571V11.8571V13.8571C32.9619 13.8571 33.8574 12.9617 33.8574 11.8571H31.8574ZM31.8574 8.14282V11.8571H33.8574V8.14282H31.8574ZM31.8574 8.14282H33.8574C33.8574 7.03825 32.9619 6.14282 31.8574 6.14282V8.14282ZM28.1431 8.14282H31.8574V6.14282H28.1431V8.14282ZM28.1431 16.1428C27.0385 16.1428 26.1431 17.0382 26.1431 18.1428H28.1431V18.1428V16.1428ZM31.8574 16.1428H28.1431V18.1428H31.8574V16.1428ZM33.8574 18.1428C33.8574 17.0383 32.9619 16.1428 31.8574 16.1428V18.1428H33.8574ZM33.8574 21.8571V18.1428H31.8574V21.8571H33.8574ZM31.8574 23.8571C32.9619 23.8571 33.8574 22.9617 33.8574 21.8571H31.8574V21.8571V23.8571ZM28.1431 23.8571H31.8574V21.8571H28.1431V23.8571ZM26.1431 21.8571C26.1431 22.9617 27.0385 23.8571 28.1431 23.8571V21.8571H28.1431H26.1431ZM26.1431 18.1428V21.8571H28.1431V18.1428H26.1431ZM28.1431 28.1428V28.1428V26.1428C27.0385 26.1428 26.1431 27.0382 26.1431 28.1428H28.1431ZM28.1431 31.8571V28.1428H26.1431V31.8571H28.1431ZM28.1431 31.8571H28.1431H26.1431C26.1431 32.9617 27.0385 33.8571 28.1431 33.8571V31.8571ZM31.8574 31.8571H28.1431V33.8571H31.8574V31.8571ZM31.8574 31.8571V33.8571C32.9619 33.8571 33.8574 32.9617 33.8574 31.8571H31.8574ZM31.8574 28.1428V31.8571H33.8574V28.1428H31.8574ZM31.8574 28.1428H33.8574C33.8574 27.0383 32.9619 26.1428 31.8574 26.1428V28.1428ZM28.1431 28.1428H31.8574V26.1428H28.1431V28.1428Z" fill="white"/>
</svg>
