<svg width="20" height="20" viewBox="0 0 20 20" fill="none" xmlns="http://www.w3.org/2000/svg">
<path d="M8.26446 4.07143C8.5406 4.07143 8.76446 4.29528 8.76446 4.57143V8.37348C8.76446 8.64963 8.5406 8.87348 8.26446 8.87348H4.4624C4.18626 8.87348 3.9624 8.64963 3.9624 8.37348V4.57143C3.9624 4.29528 4.18626 4.07143 4.4624 4.07143H8.26446ZM15.5374 4.07143C15.8136 4.07143 16.0374 4.29528 16.0374 4.57143V8.37348C16.0374 8.64963 15.8136 8.87348 15.5374 8.87348H11.7354C11.4592 8.87348 11.2354 8.64963 11.2354 8.37348V4.57143C11.2354 4.29528 11.4592 4.07143 11.7354 4.07143H15.5374ZM8.26446 11.1265C8.5406 11.1265 8.76446 11.3503 8.76446 11.6265V15.4285C8.76446 15.7047 8.5406 15.9285 8.26446 15.9285H4.4624C4.18626 15.9285 3.9624 15.7047 3.9624 15.4285V11.6265C3.9624 11.3503 4.18626 11.1265 4.4624 11.1265H8.26446ZM15.5374 11.1265C15.8136 11.1265 16.0374 11.3503 16.0374 11.6265V15.4285C16.0374 15.7047 15.8136 15.9285 15.5374 15.9285H11.7354C11.4592 15.9285 11.2354 15.7047 11.2354 15.4285V11.6265C11.2354 11.3503 11.4592 11.1265 11.7354 11.1265H15.5374Z" stroke="black" stroke-linecap="round" stroke-linejoin="round"/>
</svg>
