<svg width="60" height="60" viewBox="0 0 60 60" fill="none" xmlns="http://www.w3.org/2000/svg">
<path d="M23.8442 23.2072H26.9863V37.7752H23.8442V23.2072ZM28.2455 28.9523H32.2984V32.0152H28.2455V28.9523ZM33.5593 23.2037H36.7014V37.7752H33.5593V23.2037Z" fill="url(#paint0_linear)"/>
<path fill-rule="evenodd" clip-rule="evenodd" d="M30.4427 3.7715C44.9465 3.75671 56.699 15.5059 56.7139 30.0058C56.7142 30.2898 56.4842 30.5203 56.2002 30.5206C55.9161 30.5209 55.6857 30.2908 55.6854 30.0068C55.671 16.074 44.3783 4.78572 30.4435 4.80007L30.443 4.80007C18.592 4.80007 8.65222 12.9733 5.95632 23.9837C5.88877 24.2595 5.61036 24.4284 5.33448 24.3609C5.0586 24.2933 4.88971 24.0149 4.95726 23.739C7.76327 12.279 18.1074 3.77161 30.4427 3.7715Z" fill="url(#paint1_linear)"/>
<path fill-rule="evenodd" clip-rule="evenodd" d="M4.71594 29.4927C4.99997 29.4924 5.23044 29.7224 5.23072 30.0065C5.24423 43.9314 16.5345 55.2136 30.4647 55.2001H30.4652C42.3276 55.2001 52.2627 47.0029 54.9598 35.9841C55.0273 35.7082 55.3057 35.5393 55.5816 35.6068C55.8575 35.6744 56.0264 35.9528 55.9588 36.2286C53.1521 47.6956 42.814 56.2284 30.4657 56.2287C15.9668 56.2427 4.21621 44.4999 4.20215 30.0075C4.20187 29.7234 4.4319 29.493 4.71594 29.4927Z" fill="url(#paint2_linear)"/>
<path fill-rule="evenodd" clip-rule="evenodd" d="M15.0965 14.6794C23.5293 6.24563 37.2035 6.23061 45.653 14.6653C45.8541 14.866 45.8544 15.1916 45.6537 15.3927C45.453 15.5937 45.1274 15.594 44.9264 15.3933C36.8789 7.35991 23.8555 7.37411 15.8239 15.4067C12.5734 18.661 10.5066 22.9106 9.95341 27.4771C9.40018 32.0437 10.3925 36.664 12.7719 40.6006C12.9188 40.8437 12.8409 41.1599 12.5978 41.3068C12.3547 41.4537 12.0386 41.3758 11.8917 41.1327C9.39332 36.9994 8.35143 32.1482 8.9323 27.3534C9.51317 22.5586 11.6833 18.0966 15.0963 14.6796L15.0965 14.6794Z" fill="url(#paint3_linear)"/>
<path fill-rule="evenodd" clip-rule="evenodd" d="M48.1774 18.5868C48.4202 18.4395 48.7365 18.517 48.8838 18.7599C53.937 27.0915 52.8751 38.0934 45.6943 45.288C37.2615 53.7369 23.587 53.752 15.1375 45.303C14.9366 45.1022 14.9366 44.7765 15.1374 44.5757C15.3383 44.3748 15.6639 44.3748 15.8647 44.5757C23.9121 52.6225 36.9348 52.6082 44.9663 44.5614C51.8043 37.7102 52.8182 27.2302 48.0043 19.2933C47.857 19.0504 47.9345 18.7341 48.1774 18.5868Z" fill="url(#paint4_linear)"/>
<path fill-rule="evenodd" clip-rule="evenodd" d="M30.3937 13.9691C21.5683 13.9691 14.4158 21.1326 14.4158 29.9573C14.4158 30.2414 14.1855 30.4716 13.9015 30.4716C13.6175 30.4716 13.3872 30.2414 13.3872 29.9573C13.3872 20.5654 20.9993 12.9406 30.3937 12.9406C39.7869 12.9406 47.4158 20.5504 47.4158 29.9427C47.4158 39.3337 39.8028 46.9603 30.4084 46.9603C30.1244 46.9603 29.8941 46.7301 29.8941 46.446C29.8941 46.162 30.1244 45.9317 30.4084 45.9317C39.2338 45.9317 46.3872 38.7666 46.3872 29.9427C46.3872 21.12 39.2204 13.9691 30.3937 13.9691Z" fill="url(#paint5_linear)"/>
<path d="M54.0159 29.8714C54.0159 30.8892 54.841 31.7143 55.8588 31.7143C56.8766 31.7143 57.7017 30.8892 57.7017 29.8714C57.7017 28.8536 56.8766 28.0286 55.8588 28.0286C54.841 28.0286 54.0159 28.8536 54.0159 29.8714Z" fill="white"/>
<path fill-rule="evenodd" clip-rule="evenodd" d="M57.1872 29.8714C57.1872 29.1377 56.5924 28.5428 55.8587 28.5428C55.1249 28.5428 54.5301 29.1377 54.5301 29.8714C54.5301 30.6052 55.1249 31.2 55.8587 31.2C56.5924 31.2 57.1872 30.6052 57.1872 29.8714ZM55.8587 27.5143C57.1605 27.5143 58.2158 28.5696 58.2158 29.8714C58.2158 31.1732 57.1605 32.2285 55.8587 32.2285C54.5569 32.2285 53.5015 31.1732 53.5015 29.8714C53.5015 28.5696 54.5569 27.5143 55.8587 27.5143Z" fill="url(#paint6_linear)"/>
<path d="M2.90637 30.3331C3.00055 30.6853 3.19704 31.0016 3.471 31.242C3.74497 31.4825 4.08409 31.6363 4.44547 31.684C4.80685 31.7317 5.17427 31.6712 5.50124 31.51C5.82822 31.3489 6.10006 31.0944 6.2824 30.7788C6.46473 30.4632 6.54936 30.1005 6.52558 29.7368C6.50181 29.373 6.37069 29.0245 6.14882 28.7353C5.92694 28.4461 5.62429 28.2292 5.27912 28.112C4.93395 27.9948 4.56178 27.9826 4.20968 28.0769C3.97569 28.1391 3.75627 28.2468 3.56402 28.3939C3.37176 28.541 3.21046 28.7247 3.08936 28.9343C2.96827 29.1439 2.88976 29.3754 2.85836 29.6155C2.82696 29.8555 2.84327 30.0994 2.90637 30.3331Z" fill="white"/>
<path fill-rule="evenodd" clip-rule="evenodd" d="M6.55698 28.4224C6.84076 28.7923 7.00848 29.2381 7.03889 29.7034C7.0693 30.1686 6.96105 30.6324 6.72783 31.0362C6.49462 31.4399 6.14691 31.7654 5.72869 31.9715C5.31047 32.1776 4.84052 32.255 4.37828 32.194C3.91605 32.133 3.48229 31.9362 3.13187 31.6287C2.78158 31.3212 2.53031 30.9168 2.40979 30.4666C2.32919 30.1677 2.30838 29.8558 2.34853 29.5489C2.38872 29.2417 2.48919 28.9454 2.64415 28.6772C2.79912 28.4089 3.00554 28.1739 3.25158 27.9856C3.49745 27.7974 3.77805 27.6596 4.07727 27.5801C4.52746 27.4596 5.00327 27.4753 5.44457 27.6251C5.88607 27.775 6.27319 28.0525 6.55698 28.4224ZM6.01251 29.7704C5.99537 29.5082 5.90084 29.257 5.74088 29.0485C5.58093 28.8399 5.36273 28.6836 5.11389 28.5991C4.86505 28.5146 4.59674 28.5058 4.34291 28.5738L4.34175 28.5741L4.34175 28.5741C4.17321 28.6189 4.01516 28.6964 3.87669 28.8024C3.73821 28.9084 3.62203 29.0407 3.5348 29.1917C3.44758 29.3427 3.39103 29.5094 3.36842 29.6823C3.3458 29.8552 3.35755 30.0309 3.40299 30.1992L3.4033 30.2004C3.4712 30.4542 3.61286 30.6823 3.81037 30.8556C4.00788 31.029 4.25236 31.1399 4.51289 31.1743C4.77342 31.2086 5.0383 31.165 5.27403 31.0488C5.50975 30.9327 5.70573 30.7492 5.83718 30.5217C5.96864 30.2941 6.02965 30.0327 6.01251 29.7704Z" fill="url(#paint7_linear)"/>
<path d="M15.4547 30.7928C15.9635 29.9114 15.6615 28.7843 14.7801 28.2754C13.8987 27.7665 12.7716 28.0685 12.2627 28.9499C11.7538 29.8314 12.0558 30.9584 12.9373 31.4673C13.8187 31.9762 14.9458 31.6742 15.4547 30.7928Z" fill="white"/>
<path fill-rule="evenodd" clip-rule="evenodd" d="M12.708 29.2071C12.3411 29.8425 12.5589 30.6551 13.1943 31.0219C13.8297 31.3888 14.6423 31.1711 15.0092 30.5356C15.376 29.9002 15.1583 29.0877 14.5229 28.7208C13.8874 28.3539 13.0749 28.5716 12.708 29.2071ZM12.68 31.9127C11.5526 31.2618 11.1663 29.8202 11.8172 28.6928C12.4681 27.5654 13.9098 27.1791 15.0372 27.83C16.1646 28.4809 16.5508 29.9225 15.8999 31.0499C15.249 32.1773 13.8074 32.5636 12.68 31.9127Z" fill="url(#paint8_linear)"/>
<path d="M28.5586 46.2317C28.5586 46.596 28.6667 46.9522 28.8692 47.2552C29.0717 47.5582 29.3595 47.7943 29.6962 47.9338C30.033 48.0732 30.4035 48.1097 30.761 48.0386C31.1185 47.9675 31.4468 47.7921 31.7046 47.5344C31.9623 47.2767 32.1378 46.9485 32.2089 46.5911C32.28 46.2337 32.2435 45.8633 32.1041 45.5266C31.9646 45.19 31.7284 44.9022 31.4253 44.6998C31.1222 44.4973 30.7659 44.3893 30.4015 44.3893C30.1593 44.3887 29.9194 44.436 29.6956 44.5284C29.4717 44.6208 29.2683 44.7565 29.0971 44.9276C28.9259 45.0988 28.7901 45.3022 28.6977 45.5259C28.6053 45.7497 28.558 45.9895 28.5586 46.2317Z" fill="white"/>
<path fill-rule="evenodd" clip-rule="evenodd" d="M29.4995 44.053C29.7857 43.9348 30.0925 43.8744 30.4022 43.875C30.8681 43.8751 31.3236 44.0133 31.7111 44.2721C32.0987 44.5311 32.4008 44.8991 32.5793 45.3298C32.7577 45.7604 32.8044 46.2343 32.7134 46.6914C32.6225 47.1486 32.3979 47.5685 32.0683 47.8981C31.7386 48.2277 31.3186 48.4521 30.8614 48.543C30.4042 48.634 29.9303 48.5873 29.4996 48.4089C29.0689 48.2306 28.7007 47.9285 28.4417 47.541C28.1828 47.1536 28.0446 46.6982 28.0444 46.2323C28.0438 45.9226 28.1043 45.6159 28.2225 45.3296C28.3408 45.0433 28.5145 44.783 28.7336 44.5639C28.9528 44.3449 29.213 44.1712 29.4995 44.053ZM28.5587 46.2317H29.073C29.073 46.4943 29.1509 46.751 29.2969 46.9694C29.4428 47.1878 29.6503 47.3581 29.8931 47.4586C30.1359 47.5592 30.403 47.5855 30.6608 47.5342C30.9185 47.483 31.1553 47.3564 31.3411 47.1707C31.5269 46.985 31.6534 46.7483 31.7046 46.4907C31.7559 46.2331 31.7296 45.9661 31.629 45.7235C31.5285 45.4808 31.3582 45.2734 31.1397 45.1274C30.9213 44.9815 30.6644 44.9036 30.4016 44.9036H30.4004V44.9036C30.2259 44.9032 30.0531 44.9372 29.8919 45.0038C29.7307 45.0703 29.5842 45.1681 29.4608 45.2914C29.3375 45.4146 29.2398 45.5611 29.1732 45.7222C29.1066 45.8834 29.0726 46.0561 29.073 46.2305L28.5587 46.2317Z" fill="url(#paint9_linear)"/>
<path d="M44.2651 16.5932C44.5807 16.7756 44.9433 16.8603 45.3071 16.8366C45.6709 16.8129 46.0195 16.6818 46.3087 16.4599C46.598 16.2381 46.815 15.9354 46.9322 15.5902C47.0494 15.245 47.0616 14.8728 46.9673 14.5206C46.8729 14.1685 46.6762 13.8523 46.4021 13.6119C46.128 13.3716 45.7888 13.218 45.4273 13.1705C45.0659 13.123 44.6985 13.1837 44.3716 13.3451C44.0447 13.5064 43.773 13.7611 43.5908 14.0769C43.4693 14.2863 43.3904 14.5176 43.3585 14.7575C43.3266 14.9974 43.3425 15.2413 43.4051 15.4751C43.4678 15.7089 43.576 15.9281 43.7236 16.1199C43.8711 16.3118 44.0552 16.4726 44.2651 16.5932Z" fill="white"/>
<path fill-rule="evenodd" clip-rule="evenodd" d="M45.4941 12.6606C45.9564 12.7213 46.3903 12.9178 46.7409 13.2253C47.0916 13.5327 47.3431 13.9371 47.4638 14.3875C47.5845 14.838 47.5689 15.314 47.4189 15.7556C47.269 16.1971 46.9915 16.5842 46.6215 16.868C46.2515 17.1518 45.8056 17.3194 45.3403 17.3498C44.8753 17.3801 44.4117 17.2719 44.0081 17.0388C43.7397 16.8846 43.5044 16.6789 43.3157 16.4335C43.1268 16.1879 42.9883 15.9075 42.9081 15.6082C42.8279 15.309 42.8077 14.9969 42.8485 14.6898C42.8892 14.3829 42.9902 14.0871 43.1455 13.8194C43.3784 13.4157 43.7258 13.0902 44.1437 12.8839C44.5619 12.6776 45.0318 12.5998 45.4941 12.6606ZM44.2648 16.5932L44.5222 16.1479C44.7497 16.2794 45.0112 16.3405 45.2734 16.3234C45.5357 16.3063 45.787 16.2118 45.9955 16.0518C46.2041 15.8919 46.3605 15.6737 46.445 15.4248C46.5295 15.176 46.5383 14.9076 46.4703 14.6538C46.4023 14.3999 46.2605 14.1719 46.0629 13.9986C45.8652 13.8254 45.6207 13.7146 45.3601 13.6804C45.0995 13.6461 44.8346 13.6899 44.599 13.8063C44.3633 13.9226 44.1674 14.1062 44.0361 14.3339L44.0358 14.3345L44.0354 14.3351C43.9479 14.4859 43.891 14.6524 43.8681 14.8252C43.8451 14.998 43.8565 15.1737 43.9016 15.342C43.9467 15.5104 44.0247 15.6682 44.131 15.8064C44.2372 15.9445 44.3698 16.0604 44.5209 16.1472L44.2648 16.5932Z" fill="url(#paint10_linear)"/>
<path d="M14.1842 46.0032C14.442 46.2609 14.7704 46.4364 15.1279 46.5075C15.4854 46.5786 15.856 46.5421 16.1927 46.4026C16.5295 46.263 16.8173 46.0268 17.0198 45.7236C17.2222 45.4205 17.3302 45.0642 17.3302 44.6996C17.3301 44.3351 17.2219 43.9788 17.0193 43.6758C16.8167 43.3728 16.5288 43.1366 16.1919 42.9972C15.8551 42.8579 15.4845 42.8215 15.127 42.8928C14.7696 42.964 14.4412 43.1397 14.1836 43.3976C14.0121 43.5684 13.876 43.7715 13.7832 43.9951C13.6904 44.2187 13.6426 44.4584 13.6427 44.7005C13.6427 44.9426 13.6906 45.1823 13.7835 45.4058C13.8765 45.6294 14.0126 45.8324 14.1842 46.0032Z" fill="white"/>
<path fill-rule="evenodd" clip-rule="evenodd" d="M16.3903 42.5212C16.6763 42.6401 16.936 42.8142 17.1545 43.0336C17.4839 43.3632 17.7082 43.783 17.7991 44.24C17.8901 44.6973 17.8434 45.1712 17.665 45.602C17.4866 46.0327 17.1845 46.4009 16.7968 46.6599C16.4092 46.9189 15.9534 47.0571 15.4872 47.0571C15.021 47.0571 14.5653 46.9188 14.1777 46.6598C13.7901 46.4008 13.488 46.0327 13.3096 45.602C13.1312 45.1714 13.0845 44.6974 13.1754 44.2402C13.2663 43.7831 13.4907 43.3632 13.8201 43.0336C14.0387 42.8142 14.2984 42.64 14.5844 42.5212C14.8706 42.4022 15.1775 42.341 15.4874 42.341C15.7973 42.341 16.1041 42.4023 16.3903 42.5212ZM14.1842 43.3968L14.5479 43.7605C14.3621 43.9463 14.2356 44.1829 14.1844 44.4406C14.1331 44.6983 14.1594 44.9654 14.26 45.2082C14.3606 45.451 14.5309 45.6585 14.7494 45.8045C14.9679 45.9505 15.2247 46.0284 15.4875 46.0284C15.7502 46.0284 16.007 45.9505 16.2255 45.8046C16.4439 45.6586 16.6141 45.4512 16.7147 45.2085C16.8152 44.9658 16.8415 44.6987 16.7902 44.441C16.739 44.1832 16.6124 43.9465 16.4266 43.7607L16.4257 43.7598L16.4257 43.7598C16.3027 43.6362 16.1564 43.5381 15.9953 43.4711C15.8343 43.4042 15.6615 43.3697 15.4871 43.3697C15.3127 43.3697 15.14 43.4042 14.979 43.4711C14.818 43.538 14.6717 43.6361 14.5487 43.7597L14.1842 43.3968Z" fill="url(#paint11_linear)"/>
<defs>
<linearGradient id="paint0_linear" x1="36.6708" y1="30.4925" x2="23.8084" y2="30.4925" gradientUnits="userSpaceOnUse">
<stop stop-color="#E94F1B"/>
<stop offset="1" stop-color="#F39200"/>
</linearGradient>
<linearGradient id="paint1_linear" x1="56.7143" y1="17.1408" x2="4.94155" y2="17.1679" gradientUnits="userSpaceOnUse">
<stop stop-color="#F39200"/>
<stop offset="1" stop-color="#E94E1B"/>
</linearGradient>
<linearGradient id="paint2_linear" x1="55.4282" y1="36.252" x2="4.73098" y2="29.9866" gradientUnits="userSpaceOnUse">
<stop stop-color="#F39200"/>
<stop offset="1" stop-color="#E94F1B"/>
</linearGradient>
<linearGradient id="paint3_linear" x1="43.2776" y1="12.977" x2="12.4346" y2="40.8221" gradientUnits="userSpaceOnUse">
<stop stop-color="#F39200"/>
<stop offset="1" stop-color="#E94F1B"/>
</linearGradient>
<linearGradient id="paint4_linear" x1="48.5082" y1="19.0248" x2="15.4826" y2="44.6336" gradientUnits="userSpaceOnUse">
<stop stop-color="#F39200"/>
<stop offset="1" stop-color="#E94F1B"/>
</linearGradient>
<linearGradient id="paint5_linear" x1="42.0122" y1="18.5102" x2="22.8605" y2="38.4867" gradientUnits="userSpaceOnUse">
<stop stop-color="#F39200"/>
<stop offset="1" stop-color="#E94F1B"/>
</linearGradient>
<linearGradient id="paint6_linear" x1="55.8577" y1="32.2173" x2="55.8577" y2="27.5011" gradientUnits="userSpaceOnUse">
<stop stop-color="#E94F1B"/>
<stop offset="1" stop-color="#F39200"/>
</linearGradient>
<linearGradient id="paint7_linear" x1="5.29297" y1="32.1233" x2="4.07233" y2="27.5678" gradientUnits="userSpaceOnUse">
<stop stop-color="#E94F1B"/>
<stop offset="1" stop-color="#F39200"/>
</linearGradient>
<linearGradient id="paint8_linear" x1="15.0324" y1="27.8402" x2="12.6743" y2="31.9246" gradientUnits="userSpaceOnUse">
<stop stop-color="#E94F1B"/>
<stop offset="1" stop-color="#F39200"/>
</linearGradient>
<linearGradient id="paint9_linear" x1="32.7475" y1="46.2326" x2="28.0313" y2="46.2326" gradientUnits="userSpaceOnUse">
<stop stop-color="#E94F1B"/>
<stop offset="1" stop-color="#F39200"/>
</linearGradient>
<linearGradient id="paint10_linear" x1="47.2181" y1="16.1714" x2="43.1338" y2="13.8133" gradientUnits="userSpaceOnUse">
<stop stop-color="#E94F1B"/>
<stop offset="1" stop-color="#F39200"/>
</linearGradient>
<linearGradient id="paint11_linear" x1="17.1454" y1="46.3595" x2="13.8105" y2="43.0246" gradientUnits="userSpaceOnUse">
<stop stop-color="#E94F1B"/>
<stop offset="1" stop-color="#F39200"/>
</linearGradient>
</defs>
</svg>
