<svg width="40" height="40" viewBox="0 0 40 40" fill="none" xmlns="http://www.w3.org/2000/svg">
<path d="M16.468 11.024L15.728 15.32C15.6891 15.5217 15.7083 15.7303 15.7834 15.9215C15.8585 16.1127 15.9863 16.2787 16.1521 16.4C16.3151 16.5221 16.5089 16.5961 16.7118 16.6138C16.9146 16.6315 17.1184 16.5921 17.3001 16.5L21.3001 14.5L25.0921 16.476C25.2731 16.5736 25.4779 16.6183 25.6831 16.605C25.8883 16.5917 26.0857 16.5209 26.2526 16.4008C26.4195 16.2806 26.5492 16.1159 26.6269 15.9255C26.7046 15.7351 26.7272 15.5267 26.6921 15.324L25.9521 11.044L29.0641 8.00004C29.2103 7.85794 29.3139 7.67772 29.3631 7.47979C29.4122 7.28185 29.4049 7.07411 29.342 6.8801C29.2792 6.68609 29.1632 6.51356 29.0074 6.38206C28.8515 6.25055 28.6619 6.16533 28.4601 6.13604L24.1201 5.50404L22.1841 1.60004C22.0923 1.41822 21.9515 1.26568 21.7777 1.15965C21.6038 1.05363 21.4037 0.998341 21.2001 1.00004C20.9971 0.999088 20.7979 1.05473 20.6247 1.16071C20.4516 1.2667 20.3115 1.41883 20.2201 1.60004L18.2801 5.50404L13.94 6.12804C13.7362 6.15555 13.5443 6.24006 13.3864 6.37184C13.2285 6.50361 13.1111 6.6773 13.0475 6.8729C12.984 7.0685 12.977 7.27807 13.0273 7.47747C13.0777 7.67688 13.1833 7.85802 13.332 8.00004L16.468 11.024ZM18.7601 6.64804C18.8542 6.6323 18.9432 6.59434 19.0197 6.53729C19.0963 6.48025 19.1581 6.40577 19.2001 6.32004L21.2001 2.32004L23.2001 6.32004C23.2432 6.40726 23.3068 6.48269 23.3856 6.53983C23.4643 6.59697 23.5558 6.63411 23.6521 6.64804L28.0841 7.28804L24.8841 10.384C24.8136 10.4517 24.7608 10.5355 24.7301 10.6282C24.6995 10.7209 24.6919 10.8197 24.7081 10.916L25.4641 15.296L21.5881 13.276C21.5033 13.2325 21.4093 13.2098 21.3141 13.2098C21.2188 13.2098 21.1248 13.2325 21.0401 13.276L16.9601 15.324L17.72 10.924C17.7334 10.828 17.7232 10.7302 17.6905 10.6389C17.6578 10.5477 17.6034 10.4657 17.5321 10.4L14.3321 7.30404L18.7601 6.64804Z" fill="black"/>
<path d="M38.0002 18.8C37.7993 18.5679 37.5545 18.3778 37.28 18.2405C37.0054 18.1032 36.7064 18.0215 36.4002 18C36.094 17.979 35.7868 18.0198 35.4967 18.1202C35.2067 18.2205 34.9399 18.3783 34.7122 18.584L29.1722 23.56C29.1578 23.4494 29.1364 23.3399 29.1082 23.232C29.0151 22.8854 28.8482 22.563 28.619 22.2869C28.3898 22.0107 28.1037 21.7874 27.7802 21.632C26.7522 21.2 25.3242 21.4 23.9442 21.6C23.1371 21.758 22.3127 21.8092 21.4922 21.752C21.1271 21.6604 20.774 21.5261 20.4402 21.352C19.3922 20.884 17.9562 20.244 15.2842 20.832C13.9047 21.1883 12.6375 21.8873 11.6002 22.864V21.4C11.6002 21.2409 11.537 21.0883 11.4245 20.9757C11.3119 20.8632 11.1593 20.8 11.0002 20.8H5.8002C5.64107 20.8 5.48845 20.8632 5.37593 20.9757C5.26341 21.0883 5.2002 21.2409 5.2002 21.4V33C5.2002 33.1591 5.26341 33.3118 5.37593 33.4243C5.48845 33.5368 5.64107 33.6 5.8002 33.6H11.0002C11.1593 33.6 11.3119 33.5368 11.4245 33.4243C11.537 33.3118 11.6002 33.1591 11.6002 33V32.168C12.4002 32.356 16.0322 33.2 18.7162 33.2C21.5162 33.2 24.9402 32.56 27.0482 31.644C30.9322 29.96 37.3282 22.692 37.8482 22.104C38.2987 21.6815 38.5667 21.0999 38.595 20.4829C38.6234 19.8659 38.41 19.2621 38.0002 18.8ZM10.4002 32.4H6.4002V22H10.4002V32.4ZM37.0162 21.236L36.9602 21.292C36.8922 21.368 30.2842 28.936 26.5602 30.548C24.6002 31.4 21.3682 32 18.7162 32C15.9162 32 11.7842 30.976 11.7442 30.968C11.6964 30.9622 11.648 30.9622 11.6002 30.968V24.568C12.0362 24.068 13.5762 22.444 15.5442 22.012C17.8322 21.512 18.9602 22.012 19.9442 22.456C20.3687 22.6651 20.8174 22.821 21.2802 22.92C22.2249 23.0091 23.1775 22.9606 24.1082 22.776C25.2722 22.616 26.5922 22.432 27.3082 22.732C27.4621 22.8205 27.5967 22.939 27.7039 23.0806C27.8111 23.2222 27.8888 23.3838 27.9322 23.556C27.9903 23.7921 27.9912 24.0387 27.9349 24.2752C27.8785 24.5118 27.7665 24.7315 27.6082 24.916C26.6962 26.14 21.1482 27.972 18.8722 27.792C18.7131 27.7798 18.5556 27.8313 18.4345 27.9352C18.3133 28.0391 18.2384 28.1869 18.2262 28.346C18.214 28.5051 18.2655 28.6626 18.3694 28.7837C18.4733 28.9049 18.6211 28.9798 18.7802 28.992C18.9042 28.992 19.0402 28.992 19.1802 28.992C21.6642 28.992 26.4082 27.528 28.1442 26.064L28.1882 26.04L35.4842 19.48C35.7034 19.2847 35.991 19.1841 36.2842 19.2C36.4376 19.2093 36.5876 19.2495 36.7251 19.3183C36.8625 19.387 36.9847 19.4828 37.0842 19.6C37.2896 19.8272 37.3976 20.1259 37.3849 20.4319C37.3722 20.7379 37.2398 21.0267 37.0162 21.236Z" fill="black"/>
</svg>
