<svg width="40" height="40" viewBox="0 0 40 40" fill="none" xmlns="http://www.w3.org/2000/svg">
<path d="M37.7951 18.7602C37.5344 17.7438 36.8935 16.8904 35.9906 16.3567C35.0866 15.8226 34.0292 15.6731 33.0128 15.9346C31.1127 16.4236 29.8989 18.2309 30.0875 20.1262L26.1083 21.1509C26.1502 20.8532 26.1793 20.5515 26.1793 20.2422C26.1793 16.6464 23.254 13.7212 19.6583 13.7212C19.3944 13.7212 19.1357 13.7415 18.8798 13.7722L20.0338 10.3264C20.2562 10.365 20.4802 10.3857 20.7038 10.3857C21.3033 10.3857 21.8988 10.247 22.4508 9.97201C23.3899 9.50446 24.0906 8.69851 24.4243 7.70322C25.1114 5.64927 24.0002 3.41835 21.947 2.73037C19.8939 2.0432 17.6621 3.15448 16.9738 5.20882C16.3508 7.06866 17.2073 9.06999 18.901 9.94251L17.5501 13.9775C17.5382 14.0137 17.5302 14.0504 17.5254 14.0871C15.0737 14.9393 13.288 17.2121 13.1541 19.9177L9.73453 18.7702C10.0586 16.8932 8.978 15.0034 7.11856 14.3797C6.12288 14.0456 5.05823 14.1194 4.11915 14.5865C3.17927 15.0537 2.47814 15.8588 2.14492 16.8533C1.45575 18.9065 2.56543 21.1382 4.61859 21.8286C5.03153 21.9669 5.45125 22.0326 5.86459 22.0326C7.31347 22.0326 8.67825 21.2231 9.35786 19.9053L13.2162 21.2C13.6818 24.3425 16.389 26.7639 19.6591 26.7639C19.921 26.7639 20.1781 26.744 20.4316 26.7141L18.9815 29.6601C18.1887 29.409 17.3409 29.4118 16.5401 29.6844C15.5472 30.022 14.7448 30.7267 14.2813 31.6682C13.8173 32.6097 13.7476 33.6751 14.0856 34.6684C14.4232 35.6621 15.1279 36.4645 16.0702 36.9281C16.6178 37.1979 17.2077 37.3338 17.8009 37.3338C18.2269 37.3338 18.655 37.2637 19.0708 37.1222C20.0641 36.7838 20.8664 36.0794 21.3292 35.1388C21.7936 34.1965 21.8629 33.1307 21.5249 32.1378C21.2519 31.3366 20.7373 30.6634 20.0549 30.1882L21.9335 26.3713C21.9378 26.3622 21.9398 26.3526 21.9438 26.343C23.7212 25.675 25.1278 24.256 25.7799 22.4711L30.3856 21.2849C30.7117 22.0498 31.2657 22.6911 31.9951 23.122C32.6082 23.4839 33.2918 23.6693 33.9853 23.6693C34.3138 23.6693 34.6446 23.6278 34.9714 23.5437C35.9886 23.2818 36.842 22.6401 37.3754 21.7369C37.9079 20.8333 38.0573 19.7762 37.7951 18.7602ZM18.1074 5.58908C18.5865 4.16053 20.137 3.38606 21.5672 3.86477C22.9953 4.34308 23.7678 5.8952 23.2899 7.32416C23.0583 8.01651 22.5708 8.57693 21.9179 8.90219C21.2646 9.22704 20.5244 9.27886 19.8321 9.04688C18.4027 8.56777 17.6295 7.01684 18.1074 5.58908ZM20.2558 34.6102C19.9333 35.2647 19.3757 35.755 18.6845 35.9902C17.9946 36.2253 17.2524 36.1779 16.5983 35.8554C15.9426 35.533 15.4527 34.9749 15.2176 34.2838C14.9828 33.593 15.0314 32.8516 15.3543 32.1964C15.6771 31.5411 16.2348 31.0512 16.9251 30.8164C17.2133 30.7184 17.5099 30.6697 17.8056 30.6697C18.219 30.6697 18.6299 30.7646 19.0114 30.9527C19.0118 30.9527 19.0118 30.9527 19.0118 30.9527C19.6671 31.2752 20.1573 31.8328 20.3921 32.5232C20.6269 33.2132 20.5786 33.9545 20.2558 34.6102ZM4.99884 20.695C3.57029 20.215 2.79821 18.6621 3.27812 17.2336C3.5101 16.542 3.99798 15.982 4.65127 15.6571C5.03551 15.4662 5.44925 15.3698 5.86578 15.3698C6.15835 15.3698 6.45251 15.4172 6.7379 15.5128C8.16527 15.992 8.93734 17.5437 8.45863 18.9722C7.97872 20.4012 6.4282 21.1745 4.99884 20.695ZM19.6587 25.5682C16.7223 25.5682 14.3335 23.179 14.3335 20.2422C14.3335 17.3057 16.7223 14.917 19.6587 14.917C22.5951 14.917 24.9839 17.3057 24.9839 20.2422C24.9839 23.179 22.5951 25.5682 19.6587 25.5682ZM36.345 21.1286C35.9739 21.7568 35.38 22.2032 34.6725 22.3854C33.9666 22.5671 33.2316 22.4635 32.603 22.0924C31.9744 21.7213 31.5284 21.1274 31.3466 20.4203C30.9712 18.9611 31.8528 17.4687 33.3117 17.0933C33.5393 17.0347 33.7697 17.0056 33.9989 17.0056C34.4812 17.0056 34.9567 17.1347 35.3832 17.3866C36.011 17.7577 36.4566 18.3512 36.6376 19.0575C36.6376 19.0575 36.638 19.0579 36.638 19.0583C36.8193 19.765 36.7157 20.5004 36.345 21.1286Z" fill="#231F20"/>
</svg>
