<svg width="61" height="63" viewBox="0 0 61 63" fill="none" xmlns="http://www.w3.org/2000/svg">
<path fill-rule="evenodd" clip-rule="evenodd" d="M32 13C32 12.4477 31.5523 12 31 12H28C27.4477 12 27 12.4477 27 13V16C27 16.5523 27.4477 17 28 17H31C31.5523 17 32 16.5523 32 16V13ZM32 23C32 22.4477 31.5523 22 31 22H28C27.4477 22 27 22.4477 27 23V26C27 26.5523 27.4477 27 28 27H31C31.5523 27 32 26.5523 32 26V23ZM27 33C27 32.4477 27.4477 32 28 32H31C31.5523 32 32 32.4477 32 33V35.1958C32 35.9812 31.136 36.46 30.47 36.0438L27.47 34.1688C27.1776 33.986 27 33.6655 27 33.3208V33ZM42 13C42 12.4477 41.5523 12 41 12H38C37.4477 12 37 12.4477 37 13V16C37 16.5523 37.4477 17 38 17H41C41.5523 17 42 16.5523 42 16V13ZM37 23C37 22.4477 37.4477 22 38 22H41C41.5523 22 42 22.4477 42 23V26C42 26.5523 41.5523 27 41 27H38C37.4477 27 37 26.5523 37 26V23ZM42 33C42 32.4477 41.5523 32 41 32H38C37.4477 32 37 32.4477 37 33V36C37 36.5523 37.4477 37 38 37H41C41.5523 37 42 36.5523 42 36V33ZM47 13C47 12.4477 47.4477 12 48 12H51C51.5523 12 52 12.4477 52 13V16C52 16.5523 51.5523 17 51 17H48C47.4477 17 47 16.5523 47 16V13ZM52 23C52 22.4477 51.5523 22 51 22H48C47.4477 22 47 22.4477 47 23V26C47 26.5523 47.4477 27 48 27H51C51.5523 27 52 26.5523 52 26V23ZM47 33C47 32.4477 47.4477 32 48 32H51C51.5523 32 52 32.4477 52 33V36C52 36.5523 51.5523 37 51 37H48C47.4477 37 47 36.5523 47 36V33ZM52 43C52 42.4477 51.5523 42 51 42H48C47.4477 42 47 42.4477 47 43V46C47 46.5523 47.4477 47 48 47H51C51.5523 47 52 46.5523 52 46V43Z" fill="black"/>
<path d="M19.9775 60.7579H56.9783C58.0826 60.7579 58.9779 59.863 58.9783 58.7587L58.9991 4.00076C58.9995 2.89589 58.104 2 56.9991 2H21.9999C20.8953 2 19.9999 2.89543 19.9999 4V33" stroke="black" stroke-width="2.5"/>
<mask id="path-3-inside-1" fill="white">
<path fill-rule="evenodd" clip-rule="evenodd" d="M8.13459 44.3794C9.34749 37.209 15.5876 31.7479 23.1032 31.7479C29.5476 31.7479 35.0542 35.7632 37.2577 41.4285H40.5407C46.2214 41.4285 50.8264 46.0335 50.8264 51.7142C50.8264 57.3948 46.2214 61.9999 40.5407 61.9999H38.2851V62H7.92129V61.9544C3.47202 61.5025 0 57.745 0 53.1765C0 48.5352 3.58348 44.7309 8.13459 44.3794Z"/>
</mask>
<path d="M8.13459 44.3794L8.32709 46.872L10.2739 46.7217L10.5996 44.7964L8.13459 44.3794ZM37.2577 41.4285L34.9277 42.3347L35.5476 43.9285H37.2577V41.4285ZM38.2851 61.9999V59.4999H35.7851V61.9999H38.2851ZM38.2851 62V64.5H40.7851V62H38.2851ZM7.92129 62H5.42129V64.5H7.92129V62ZM7.92129 61.9544H10.4213V59.6955L8.17391 59.4672L7.92129 61.9544ZM23.1032 29.2479C14.3475 29.2479 7.08255 35.6094 5.66961 43.9625L10.5996 44.7964C11.6124 38.8086 16.8277 34.2479 23.1032 34.2479V29.2479ZM39.5877 40.5222C37.023 33.9283 30.6128 29.2479 23.1032 29.2479V34.2479C28.4825 34.2479 33.0855 37.5981 34.9277 42.3347L39.5877 40.5222ZM40.5407 38.9285H37.2577V43.9285H40.5407V38.9285ZM53.3264 51.7142C53.3264 44.6528 47.6021 38.9285 40.5407 38.9285V43.9285C44.8407 43.9285 48.3264 47.4143 48.3264 51.7142H53.3264ZM40.5407 64.4999C47.6021 64.4999 53.3264 58.7755 53.3264 51.7142H48.3264C48.3264 56.0141 44.8407 59.4999 40.5407 59.4999V64.4999ZM38.2851 64.4999H40.5407V59.4999H38.2851V64.4999ZM40.7851 62V61.9999H35.7851V62H40.7851ZM7.92129 64.5H38.2851V59.5H7.92129V64.5ZM5.42129 61.9544V62H10.4213V61.9544H5.42129ZM8.17391 59.4672C4.98793 59.1436 2.5 56.449 2.5 53.1765H-2.5C-2.5 59.0409 1.9561 63.8614 7.66868 64.4416L8.17391 59.4672ZM2.5 53.1765C2.5 49.8514 5.06801 47.1237 8.32709 46.872L7.94209 41.8869C2.09894 42.3381 -2.5 47.219 -2.5 53.1765H2.5Z" fill="black" mask="url(#path-3-inside-1)"/>
</svg>
