<svg width="40" height="40" viewBox="0 0 40 40" fill="none" xmlns="http://www.w3.org/2000/svg">
<path d="M25.9281 16.344C25.6788 16.3439 25.4317 16.3914 25.2001 16.484V16.296C25.1991 15.7266 24.9724 15.1809 24.5698 14.7783C24.1672 14.3757 23.6215 14.1491 23.0521 14.148H22.9521C22.6055 14.151 22.2649 14.2389 21.9601 14.404C21.8599 13.9198 21.5961 13.4848 21.2129 13.1723C20.8297 12.8598 20.3506 12.6888 19.8561 12.688C19.4905 12.6876 19.1299 12.774 18.8041 12.94V9.836H22.6041C22.7633 9.836 22.9159 9.77279 23.0284 9.66026C23.1409 9.54774 23.2041 9.39513 23.2041 9.236V3.4C23.2041 3.32087 23.1885 3.24252 23.1581 3.16946C23.1277 3.09641 23.0831 3.03008 23.027 2.97432C22.9708 2.91855 22.9042 2.87444 22.831 2.84452C22.7577 2.8146 22.6793 2.79947 22.6001 2.8H10.2001C10.041 2.8 9.88838 2.86322 9.77586 2.97574C9.66333 3.08826 9.60012 3.24087 9.60012 3.4V9.236C9.60012 9.39513 9.66333 9.54774 9.77586 9.66026C9.88838 9.77279 10.041 9.836 10.2001 9.836H14.4001V24.516L10.8841 21.636C10.1783 21.0454 9.27743 20.7394 8.35787 20.7779C7.43831 20.8163 6.56619 21.1965 5.91212 21.844C5.80691 21.948 5.74382 22.0872 5.73496 22.2348C5.72611 22.3825 5.7721 22.5282 5.86412 22.644L14.4001 33.556V38.6C14.4001 38.7591 14.4633 38.9117 14.5759 39.0243C14.6884 39.1368 14.841 39.2 15.0001 39.2C15.1593 39.2 15.3119 39.1368 15.4244 39.0243C15.5369 38.9117 15.6001 38.7591 15.6001 38.6V33.348C15.5996 33.2145 15.5545 33.085 15.4721 32.98L7.16812 22.356C7.61637 22.0706 8.14401 21.9357 8.67424 21.971C9.20446 22.0062 9.7096 22.2098 10.1161 22.552L14.6201 26.244C14.7077 26.3157 14.8139 26.3612 14.9262 26.3751C15.0386 26.3891 15.1526 26.3709 15.2551 26.3228C15.3576 26.2747 15.4444 26.1986 15.5054 26.1032C15.5665 26.0079 15.5993 25.8972 15.6001 25.784V7.844C15.6012 7.5929 15.7014 7.35238 15.8789 7.17483C16.0565 6.99727 16.297 6.89705 16.5481 6.896H16.6481C16.8999 6.896 17.1415 6.99575 17.3199 7.17342C17.4983 7.35109 17.5991 7.59221 17.6001 7.844V20.6C17.6001 20.7591 17.6633 20.9117 17.7759 21.0243C17.8884 21.1368 18.041 21.2 18.2001 21.2C18.3593 21.2 18.5119 21.1368 18.6244 21.0243C18.7369 20.9117 18.8001 20.7591 18.8001 20.6V14.8C18.8264 14.543 18.95 14.3057 19.1456 14.1369C19.3412 13.9681 19.594 13.8804 19.8521 13.892C20.1032 13.8931 20.3437 13.9933 20.5213 14.1708C20.6989 14.3484 20.7991 14.5889 20.8001 14.84V16.2C20.8001 16.2 20.8001 16.232 20.8001 16.248C20.8001 16.264 20.8001 16.28 20.8001 16.296V20.6C20.8001 20.7591 20.8633 20.9117 20.9759 21.0243C21.0884 21.1368 21.241 21.2 21.4001 21.2C21.5593 21.2 21.7119 21.1368 21.8244 21.0243C21.9369 20.9117 22.0001 20.7591 22.0001 20.6V16.3C22.0012 16.0489 22.1014 15.8084 22.2789 15.6308C22.4565 15.4533 22.697 15.3531 22.9481 15.352H23.0481C23.2999 15.352 23.5415 15.4517 23.7199 15.6294C23.8983 15.8071 23.9991 16.0482 24.0001 16.3V20.6C24.0001 20.7591 24.0633 20.9117 24.1759 21.0243C24.2884 21.1368 24.441 21.2 24.6001 21.2C24.7593 21.2 24.9119 21.1368 25.0244 21.0243C25.1369 20.9117 25.2001 20.7591 25.2001 20.6V18.4C25.1861 18.295 25.1942 18.1882 25.2241 18.0865C25.254 17.9849 25.3049 17.8906 25.3735 17.8099C25.4422 17.7292 25.527 17.6638 25.6226 17.618C25.7181 17.5722 25.8222 17.547 25.9281 17.544C26.1566 17.544 26.376 17.6336 26.5391 17.7937C26.7022 17.9538 26.7959 18.1715 26.8001 18.4V28.756C26.8018 29.5735 26.6415 30.3833 26.3284 31.1385C26.0154 31.8937 25.5557 32.5794 24.9761 33.156C24.9179 33.214 24.8723 33.2834 24.842 33.3597C24.8118 33.4361 24.7975 33.5179 24.8001 33.6V38.2C24.8001 38.3591 24.8633 38.5117 24.9759 38.6243C25.0884 38.7368 25.241 38.8 25.4001 38.8C25.5592 38.8 25.7119 38.7368 25.8244 38.6243C25.9369 38.5117 26.0001 38.3591 26.0001 38.2V33.828C27.2901 32.4548 28.0057 30.64 28.0001 28.756V18.4C27.9959 17.8533 27.7757 17.3303 27.3876 16.9452C26.9995 16.5601 26.4749 16.344 25.9281 16.344ZM16.6521 5.692H16.5521C15.9814 5.692 15.434 5.91873 15.0304 6.32231C14.6268 6.72589 14.4001 7.27326 14.4001 7.844V8.644H10.8001V4H22.0001V8.636H18.8001V7.836C18.798 7.26733 18.5709 6.72262 18.1684 6.32089C17.7659 5.91915 17.2208 5.69305 16.6521 5.692Z" fill="black"/>
<path d="M31.8002 5.20001H25.8002C25.6411 5.20001 25.4885 5.26323 25.3759 5.37575C25.2634 5.48827 25.2002 5.64088 25.2002 5.80001C25.2002 5.95914 25.2634 6.11175 25.3759 6.22428C25.4885 6.3368 25.6411 6.40001 25.8002 6.40001H31.8002C31.9593 6.40001 32.1119 6.3368 32.2245 6.22428C32.337 6.11175 32.4002 5.95914 32.4002 5.80001C32.4002 5.64088 32.337 5.48827 32.2245 5.37575C32.1119 5.26323 31.9593 5.20001 31.8002 5.20001Z" fill="black"/>
<path d="M25.8679 8.80001C25.7542 8.69403 25.6037 8.63633 25.4483 8.63907C25.2929 8.64181 25.1446 8.70478 25.0346 8.81471C24.9247 8.92464 24.8617 9.07295 24.859 9.22839C24.8562 9.38383 24.9139 9.53427 25.0199 9.64801L30.3679 15.008C30.4843 15.0936 30.6276 15.1344 30.7716 15.1228C30.9156 15.1112 31.0506 15.048 31.1518 14.9449C31.2529 14.8418 31.3135 14.7056 31.3224 14.5615C31.3312 14.4173 31.2877 14.2747 31.1999 14.16L25.8679 8.80001Z" fill="black"/>
<path d="M8.42373 10.776C8.31123 10.6636 8.15873 10.6005 7.99973 10.6005C7.84073 10.6005 7.68823 10.6636 7.57573 10.776L3.57573 14.776C3.51678 14.8309 3.4695 14.8972 3.43671 14.9708C3.40391 15.0444 3.38628 15.1238 3.38486 15.2044C3.38344 15.2849 3.39826 15.365 3.42843 15.4397C3.45861 15.5144 3.50353 15.5823 3.5605 15.6392C3.61748 15.6962 3.68534 15.7411 3.76005 15.7713C3.83476 15.8015 3.91479 15.8163 3.99535 15.8149C4.07591 15.8134 4.15536 15.7958 4.22896 15.763C4.30256 15.7302 4.3688 15.6829 4.42373 15.624L8.42373 11.624C8.53609 11.5115 8.5992 11.359 8.5992 11.2C8.5992 11.041 8.53609 10.8885 8.42373 10.776Z" fill="black"/>
</svg>
