<svg width="36" height="36" viewBox="0 0 36 36" fill="none" xmlns="http://www.w3.org/2000/svg">
<path d="M30.2985 5.89543C27.0372 2.65962 22.7165 0.879883 18.1248 0.879883C18.1017 0.879883 18.0785 0.879883 18.0554 0.879883C8.52316 0.917351 0.798909 8.70235 0.835579 18.2348C0.853516 22.8525 2.66869 27.1865 5.94629 30.4386C9.20794 33.6748 13.5282 35.4546 18.12 35.4542C18.1431 35.4542 18.1666 35.4542 18.1897 35.4542C27.7216 35.4171 35.4463 27.6321 35.4092 18.0997C35.3917 13.4823 33.5765 9.14798 30.2985 5.89543ZM18.1854 34.2584C13.8981 34.2743 9.8401 32.6178 6.7889 29.59C3.73771 26.5623 2.04809 22.5281 2.03135 18.23C1.99707 9.35724 9.18721 2.11035 18.0598 2.07567C18.0817 2.07567 18.1025 2.07567 18.1244 2.07567C22.3984 2.07567 26.4206 3.73224 29.4563 6.74444C32.5075 9.77178 34.1971 13.806 34.2138 18.1045C34.2481 26.9772 27.0576 34.2237 18.1854 34.2584Z" fill="black"/>
<path d="M24.4346 13.678C24.5816 13.4193 24.5163 13.0921 24.2811 12.9095C24.0459 12.727 23.7131 12.7453 23.4987 12.9522L18.4414 17.8506C18.3517 17.8426 18.2564 17.8426 18.1735 17.8386C16.5839 17.845 15.2957 19.1432 15.3013 20.7328C15.3041 21.5029 15.607 22.2256 16.1539 22.768C16.6975 23.3077 17.4178 23.6043 18.1827 23.6043C18.1867 23.6043 18.1911 23.6043 18.1954 23.6043C18.9655 23.6015 19.6886 23.2986 20.231 22.7521C20.7731 22.2052 21.0701 21.4802 21.0673 20.7105C21.0661 20.4135 21.0186 20.121 20.9258 19.8364L24.4346 13.678ZM19.7204 20.0313C19.8197 20.2529 19.8707 20.4829 19.8715 20.7149C19.8735 21.1657 19.6993 21.5898 19.382 21.9099C19.0644 22.2299 18.6419 22.4069 18.1907 22.4085C17.7399 22.3997 17.3158 22.2367 16.9957 21.919C16.6756 21.6017 16.4986 21.1788 16.4971 20.728C16.4935 19.7981 17.2476 19.0384 18.1771 19.0344C18.1783 19.0344 18.1799 19.0344 18.1811 19.0344C18.2947 19.0344 18.4107 19.0463 18.5259 19.0703C18.7188 19.1093 18.9197 19.0515 19.0624 18.9136L21.3212 16.7261L19.746 19.4908C19.6519 19.6562 19.6423 19.8571 19.7204 20.0313Z" fill="black"/>
<path d="M18.2293 27.7362C18.2269 27.7362 18.2245 27.7362 18.2217 27.7362C17.1842 27.7402 16.3436 28.5876 16.3472 29.6252C16.3492 30.1278 16.5465 30.5997 16.9036 30.9537C17.2588 31.306 17.7291 31.4994 18.2289 31.4994C18.2313 31.4994 18.2337 31.4994 18.2365 31.4994C19.274 31.4954 20.1146 30.648 20.1111 29.6104C20.1075 28.5753 19.2641 27.7362 18.2293 27.7362ZM18.2321 30.3036C18.2313 30.3036 18.2305 30.3036 18.2293 30.3036C18.0468 30.3036 17.8754 30.233 17.7462 30.1047C17.6163 29.9759 17.5441 29.8037 17.5433 29.6204C17.5421 29.2421 17.8483 28.9332 18.2265 28.9316C18.2273 28.9316 18.2281 28.9316 18.2293 28.9316C18.6064 28.9316 18.9137 29.2377 18.9153 29.6148C18.9173 29.9935 18.6104 30.302 18.2321 30.3036Z" fill="black"/>
<path d="M18.1292 5.15485C18.1125 5.15485 18.0949 5.15485 18.0786 5.15485C14.6228 5.168 11.3791 6.52642 8.94493 8.97938C6.51114 11.4324 5.17786 14.6865 5.19101 18.1423C5.20496 21.601 6.56495 24.8463 9.02106 27.2814C9.13346 27.3922 9.28452 27.4548 9.44197 27.4548C9.44874 27.4548 9.45512 27.4548 9.4619 27.4544C9.62651 27.4488 9.78156 27.3758 9.89038 27.2523L12.5992 24.1827C12.8176 23.9351 12.7941 23.5577 12.5466 23.3388C12.2991 23.1212 11.9212 23.1447 11.7028 23.3919L9.42443 25.974C7.47294 23.8231 6.39874 21.0648 6.38718 18.1383C6.37522 15.0018 7.58494 12.0486 9.79432 9.82242C12.0037 7.59625 14.9473 6.36339 18.0838 6.35143C18.0993 6.35143 18.1145 6.35143 18.1296 6.35143C24.5828 6.35143 29.8461 11.589 29.8708 18.0483C29.882 20.9847 28.8226 23.7606 26.8743 25.9297L24.5732 23.6462C24.3384 23.413 23.9602 23.4146 23.7278 23.6493C23.495 23.8837 23.4966 24.2624 23.731 24.4948L26.4669 27.21C26.5789 27.3212 26.7304 27.3838 26.8882 27.3838C26.889 27.3838 26.8898 27.3838 26.8906 27.3838C27.0488 27.383 27.2007 27.3196 27.3127 27.2072C29.7469 24.7543 31.0802 21.5001 31.067 18.0439C31.0383 10.9253 25.24 5.15485 18.1292 5.15485Z" fill="black"/>
</svg>
