<svg width="40" height="40" viewBox="0 0 40 40" fill="none" xmlns="http://www.w3.org/2000/svg">
<path d="M35.8195 11.012L33.9995 6.40003C33.9839 6.30079 33.9434 6.20712 33.8819 6.12772C33.8203 6.04831 33.7397 5.98575 33.6475 5.94584C33.5554 5.90593 33.4546 5.88997 33.3546 5.89945C33.2546 5.90892 33.1586 5.94352 33.0755 6.00003L28.1795 7.80803C28.0462 7.87233 27.9414 7.98361 27.8852 8.12048C27.829 8.25736 27.8254 8.41017 27.875 8.54958C27.9246 8.68898 28.024 8.80514 28.154 8.87573C28.284 8.94632 28.4356 8.96637 28.5795 8.93203L32.2355 7.57203L26.1315 21L23.0155 15.696C22.9602 15.6019 22.8803 15.5247 22.7844 15.4726C22.6884 15.4205 22.5801 15.3956 22.471 15.4006C22.362 15.4055 22.2564 15.4401 22.1655 15.5006C22.0747 15.5611 22.0021 15.6453 21.9555 15.744L17.4715 25.312L13.8635 18.4C13.8145 18.2978 13.7363 18.2124 13.6387 18.1547C13.5412 18.0971 13.4287 18.0697 13.3155 18.076C13.2084 18.079 13.1041 18.1107 13.0133 18.1677C12.9226 18.2246 12.8488 18.3049 12.7995 18.4L7.19951 30.644V6.60003C7.19951 6.4409 7.13629 6.28829 7.02377 6.17576C6.91125 6.06324 6.75864 6.00003 6.59951 6.00003C6.44038 6.00003 6.28776 6.06324 6.17524 6.17576C6.06272 6.28829 5.99951 6.4409 5.99951 6.60003V33.4C5.99951 33.4 5.99951 33.428 5.99951 33.44C5.99821 33.4627 5.99821 33.4854 5.99951 33.508C5.99951 33.508 5.99951 33.544 5.99951 33.564C5.99951 33.584 5.99951 33.6 5.99951 33.62L6.02751 33.676L6.05551 33.724L6.09151 33.772L6.12751 33.816L6.17151 33.856L6.21551 33.892L6.27551 33.928L6.31151 33.948L6.40351 33.98H6.42751H6.54351H33.3435C33.5026 33.98 33.6552 33.9168 33.7678 33.8043C33.8803 33.6918 33.9435 33.5392 33.9435 33.38C33.9435 33.2209 33.8803 33.0683 33.7678 32.9558C33.6552 32.8432 33.5026 32.78 33.3435 32.78H7.53151L13.3675 20.032L16.9675 26.944C17.0193 27.0433 17.0978 27.1262 17.1942 27.1832C17.2906 27.2402 17.401 27.2691 17.513 27.2666C17.6249 27.2641 17.734 27.2303 17.8277 27.1691C17.9215 27.1078 17.9962 27.0216 18.0435 26.92L22.5595 17.288L25.6835 22.604C25.7392 22.6989 25.8198 22.7766 25.9166 22.8287C26.0134 22.8808 26.1227 22.9053 26.2325 22.8996C26.3423 22.8938 26.4484 22.8579 26.5393 22.7959C26.6301 22.7339 26.7021 22.6482 26.7475 22.548L33.3595 8.04403L34.7035 11.452C34.7646 11.5961 34.8796 11.7106 35.0239 11.7711C35.1682 11.8316 35.3304 11.8333 35.4759 11.7759C35.6215 11.7185 35.7389 11.6065 35.8031 11.4638C35.8673 11.3211 35.8732 11.159 35.8195 11.012Z" fill="black"/>
</svg>
