<svg width="34" height="36" viewBox="0 0 34 36" fill="none" xmlns="http://www.w3.org/2000/svg">
<path d="M26.7313 6.27516C24.8495 4.59151 22.4217 3.74131 19.9058 3.88122C17.3855 4.02112 15.0705 5.13399 13.3872 7.01455C9.91227 10.8976 10.2443 16.8841 14.1274 20.359C15.9282 21.9702 18.1799 22.7626 20.4248 22.7626C23.0216 22.7626 25.6081 21.7015 27.4719 19.6189C30.9464 15.7366 30.6144 9.7501 26.7313 6.27516ZM26.5802 18.8221C23.5457 22.2137 18.3166 22.5039 14.9246 19.4678C11.5325 16.4325 11.2428 11.2038 14.2777 7.81214C15.7481 6.16914 17.7705 5.19697 19.9716 5.075C20.1282 5.06663 20.2837 5.06225 20.4391 5.06225C22.4715 5.06225 24.4071 5.80004 25.9337 7.16602C29.3257 10.2017 29.6155 15.4304 26.5802 18.8221Z" fill="black"/>
<path d="M15.34 8.74489C15.1196 8.99122 15.1407 9.36909 15.3866 9.58911C15.501 9.69115 15.6433 9.74137 15.7852 9.74137C15.9494 9.74137 16.1129 9.67441 16.2308 9.54208C18.3131 7.21549 21.8988 7.01699 24.2254 9.09844C24.4714 9.31886 24.8488 9.29774 25.0696 9.05181C25.2897 8.80548 25.2685 8.42761 25.0226 8.20759C22.2046 5.68609 17.8611 5.92763 15.34 8.74489Z" fill="black"/>
<path d="M33.1432 12.5471C32.9403 9.16221 31.4316 6.05956 28.895 3.8095C26.3584 1.55944 23.1003 0.435411 19.7122 0.635107C16.3278 0.83799 13.2247 2.34666 10.9751 4.88331C6.46498 9.96816 6.78943 17.6949 11.6068 22.3907L9.54491 24.7432L8.88364 24.1569C8.63691 23.9377 8.26064 23.96 8.04141 24.2055L0.86674 32.2232C0.760715 32.3412 0.706506 32.4966 0.715275 32.6549C0.724044 32.8131 0.795392 32.9618 0.913376 33.0674L3.16742 35.0847C3.28182 35.1867 3.42411 35.237 3.56601 35.237C3.73023 35.237 3.89366 35.1696 4.01164 35.0377L11.1959 27.0096C11.3019 26.8912 11.3565 26.7354 11.3473 26.5763C11.3382 26.4181 11.266 26.269 11.1473 26.1638L10.4397 25.5364L12.5005 23.1855C14.7657 25.0178 17.5467 26.0012 20.4548 26.0012C20.7127 26.0012 20.9722 25.9932 21.2317 25.9776C24.6161 25.7744 27.7192 24.2657 29.9692 21.729C32.2193 19.1924 33.3461 15.9319 33.1432 12.5471ZM3.51938 33.7949L2.15659 32.5752L8.53567 25.4467L9.90444 26.6604L3.51938 33.7949ZM29.0744 20.9358C27.0364 23.2337 24.2255 24.6001 21.1599 24.7839C18.0947 24.9728 15.1404 23.9464 12.8425 21.9088C8.09921 17.7017 7.66275 10.4198 11.8699 5.67651C13.9079 3.37862 16.7188 2.01225 19.7844 1.82849C20.0195 1.81414 20.2539 1.80737 20.4879 1.80737C23.2996 1.80737 25.9805 2.82219 28.1022 4.70394C30.4001 6.74195 31.7665 9.55283 31.9502 12.6184C32.1336 15.6844 31.112 18.6384 29.0744 20.9358Z" fill="black"/>
</svg>
