<svg width="20" height="20" viewBox="0 0 20 20" fill="none" xmlns="http://www.w3.org/2000/svg">
<path d="M10.0002 12.1429C11.1837 12.1429 12.1431 11.1835 12.1431 10C12.1431 8.81653 11.1837 7.85714 10.0002 7.85714C8.81674 7.85714 7.85735 8.81653 7.85735 10C7.85735 11.1835 8.81674 12.1429 10.0002 12.1429Z" stroke="black" stroke-linecap="round" stroke-linejoin="round"/>
<path d="M15.2859 12.1429C15.1908 12.3583 15.1625 12.5973 15.2045 12.829C15.2465 13.0607 15.357 13.2745 15.5216 13.4429L15.5645 13.4857C15.6973 13.6184 15.8027 13.7759 15.8746 13.9494C15.9465 14.1228 15.9835 14.3087 15.9835 14.4964C15.9835 14.6842 15.9465 14.8701 15.8746 15.0435C15.8027 15.2169 15.6973 15.3745 15.5645 15.5071C15.4318 15.64 15.2743 15.7453 15.1008 15.8172C14.9274 15.8891 14.7415 15.9261 14.5538 15.9261C14.366 15.9261 14.1802 15.8891 14.0067 15.8172C13.8333 15.7453 13.6757 15.64 13.5431 15.5071L13.5002 15.4643C13.3319 15.2996 13.1181 15.1892 12.8863 15.1471C12.6546 15.1051 12.4157 15.1335 12.2002 15.2286C11.9889 15.3191 11.8088 15.4695 11.6819 15.6611C11.5549 15.8527 11.4868 16.0773 11.4859 16.3071V16.4286C11.4859 16.8074 11.3354 17.1708 11.0675 17.4387C10.7996 17.7066 10.4362 17.8571 10.0574 17.8571C9.67847 17.8571 9.31511 17.7066 9.0472 17.4387C8.77929 17.1708 8.62878 16.8074 8.62878 16.4286V16.3643C8.62325 16.1279 8.54672 15.8986 8.40915 15.7062C8.27157 15.5139 8.07931 15.3673 7.85735 15.2857C7.64191 15.1906 7.40293 15.1623 7.17122 15.2043C6.93951 15.2463 6.72569 15.3568 6.55735 15.5214L6.5145 15.5643C6.38182 15.6971 6.22426 15.8025 6.05084 15.8744C5.87741 15.9463 5.69152 15.9833 5.50378 15.9833C5.31604 15.9833 5.13015 15.9463 4.95672 15.8744C4.7833 15.8025 4.62574 15.6971 4.49307 15.5643C4.36024 15.4316 4.25487 15.2741 4.18298 15.1006C4.11109 14.9272 4.07409 14.7413 4.07409 14.5536C4.07409 14.3658 4.11109 14.1799 4.18298 14.0065C4.25487 13.8331 4.36024 13.6755 4.49307 13.5429L4.53592 13.5C4.70059 13.3317 4.81106 13.1178 4.85307 12.8861C4.89508 12.6544 4.86672 12.4154 4.77164 12.2C4.68109 11.9887 4.53075 11.8086 4.33911 11.6816C4.14748 11.5547 3.92291 11.4866 3.69307 11.4857H3.57164C3.19276 11.4857 2.82939 11.3352 2.56149 11.0673C2.29358 10.7994 2.14307 10.436 2.14307 10.0571C2.14307 9.67826 2.29358 9.3149 2.56149 9.04699C2.82939 8.77908 3.19276 8.62857 3.57164 8.62857H3.63592C3.87235 8.62304 4.10164 8.54651 4.29399 8.40893C4.48635 8.27136 4.63286 8.07909 4.7145 7.85714C4.80958 7.6417 4.83794 7.40272 4.79593 7.171C4.75391 6.93929 4.64345 6.72548 4.47878 6.55714L4.43592 6.51428C4.3031 6.38161 4.19773 6.22405 4.12584 6.05062C4.05395 5.8772 4.01694 5.6913 4.01694 5.50357C4.01694 5.31583 4.05395 5.12994 4.12584 4.95651C4.19773 4.78308 4.3031 4.62553 4.43592 4.49285C4.5686 4.36003 4.72615 4.25466 4.89958 4.18277C5.07301 4.11088 5.2589 4.07387 5.44664 4.07387C5.63437 4.07387 5.82027 4.11088 5.9937 4.18277C6.16712 4.25466 6.32468 4.36003 6.45735 4.49285L6.50021 4.53571C6.66855 4.70038 6.88236 4.81084 7.11407 4.85286C7.34579 4.89487 7.58477 4.86651 7.80021 4.77142H7.85735C8.06862 4.68088 8.24879 4.53054 8.3757 4.3389C8.50262 4.14726 8.57072 3.9227 8.57164 3.69285V3.57142C8.57164 3.19254 8.72215 2.82918 8.99006 2.56127C9.25797 2.29336 9.62133 2.14285 10.0002 2.14285C10.3791 2.14285 10.7425 2.29336 11.0104 2.56127C11.2783 2.82918 11.4288 3.19254 11.4288 3.57142V3.63571C11.4297 3.86556 11.4978 4.09012 11.6247 4.28176C11.7516 4.47339 11.9318 4.62374 12.1431 4.71428C12.3585 4.80936 12.5975 4.83773 12.8292 4.79571C13.0609 4.7537 13.2747 4.64324 13.4431 4.47857L13.4859 4.43571C13.6186 4.30289 13.7762 4.19752 13.9496 4.12562C14.123 4.05373 14.3089 4.01673 14.4966 4.01673C14.6844 4.01673 14.8703 4.05373 15.0437 4.12562C15.2171 4.19752 15.3747 4.30289 15.5074 4.43571C15.6402 4.56839 15.7455 4.72594 15.8174 4.89937C15.8893 5.07279 15.9263 5.25869 15.9263 5.44642C15.9263 5.63416 15.8893 5.82006 15.8174 5.99348C15.7455 6.16691 15.6402 6.32446 15.5074 6.45714L15.4645 6.5C15.2998 6.66834 15.1894 6.88215 15.1474 7.11386C15.1053 7.34557 15.1337 7.58456 15.2288 7.8V7.85714C15.3193 8.0684 15.4697 8.24858 15.6613 8.37549C15.8529 8.5024 16.0775 8.57051 16.3074 8.57142H16.4288C16.8077 8.57142 17.171 8.72193 17.4389 8.98984C17.7068 9.25775 17.8574 9.62112 17.8574 10C17.8574 10.3789 17.7068 10.7422 17.4389 11.0101C17.171 11.2781 16.8077 11.4286 16.4288 11.4286H16.3645C16.1346 11.4295 15.9101 11.4976 15.7185 11.6245C15.5268 11.7514 15.3765 11.9316 15.2859 12.1429Z" stroke="black" stroke-linecap="round" stroke-linejoin="round"/>
</svg>
