<svg width="41" height="32" viewBox="0 0 41 32" fill="none" xmlns="http://www.w3.org/2000/svg">
<g clip-path="url(#clip0)">
<path fill-rule="evenodd" clip-rule="evenodd" d="M20.5002 19.44C18.8386 19.4395 17.2394 18.7978 16.027 17.6449C14.8146 16.492 14.0799 14.9144 13.9718 13.232C14.6924 13.3936 15.4233 13.5296 16.1637 13.6384C16.2797 14.2567 16.5229 14.8432 16.8773 15.3597C17.2316 15.8762 17.6893 16.3112 18.2204 16.6363C18.7516 16.9614 19.3443 17.1692 19.9599 17.2464C20.5755 17.3235 21.2002 17.2682 21.7933 17.084L21.6325 14.1352L23.8559 15.7104C24.3559 15.1186 24.6943 14.4042 24.8376 13.6384C25.5729 13.5306 26.3041 13.3951 27.0295 13.232C26.9214 14.9145 26.1865 16.4923 24.9739 17.6452C23.7614 18.798 22.162 19.4397 20.5002 19.44ZM29.1733 10.4C28.398 10.657 27.612 10.8791 26.8174 11.0656C24.7455 11.5497 22.6263 11.794 20.5002 11.7936C18.3742 11.794 16.2549 11.5497 14.1831 11.0656C13.3887 10.8791 12.6029 10.657 11.8279 10.4H11.8271V12.8C11.8271 17.66 15.7103 21.6 20.5002 21.6C25.2886 21.6 29.1709 17.6632 29.1733 12.8048V10.4Z" fill="black"/>
<path fill-rule="evenodd" clip-rule="evenodd" d="M35.0787 23.6624L30.8091 20.6384L31.1482 26.8176C27.9406 28.8002 24.2559 29.846 20.5 29.84C16.6011 29.84 12.9568 28.736 9.8534 26.8184L10.1924 20.6368L5.92135 23.6624C4.44336 22.1467 3.20315 20.4099 2.24396 18.5128C2.69274 16.6894 3.40649 14.9438 4.36177 13.3336C4.00175 12.5053 3.70468 11.6503 3.47317 10.776C2.8541 8.4379 2.70872 5.99672 3.04583 3.6L9.15167 7.9264C12.4163 5.41421 16.4027 4.05743 20.5 4.064C24.5973 4.05743 28.5837 5.41421 31.8483 7.9264L37.9542 3.6C38.2912 5.99672 38.1458 8.43789 37.5268 10.776C37.2953 11.6503 36.9983 12.5053 36.6382 13.3336C37.5936 14.9438 38.3073 16.6893 38.756 18.5128C37.7968 20.4099 36.5566 22.1467 35.0787 23.6624ZM40.016 15.4224C39.7202 14.6558 39.3806 13.9073 38.9989 13.1808C40.2824 9.70162 40.5924 5.93002 39.8946 2.2832L39.8851 2.232C39.7386 1.47749 39.549 0.732244 39.3174 0L31.8491 5.2912C28.4678 3.07398 24.526 1.89754 20.5 1.904C16.474 1.89754 12.5322 3.07398 9.15088 5.2912L1.68258 0C1.45235 0.7272 1.26233 1.472 1.11488 2.232L1.10542 2.2832C0.407923 5.93004 0.71791 9.70156 2.00112 13.1808C1.07707 14.9395 0.40333 16.8222 0 18.7728C1.04448 21.0366 2.44703 23.1118 4.15204 24.916C4.65331 25.447 5.17929 25.9535 5.72817 26.4336L7.82312 24.9488L7.65912 27.9464C11.4329 30.5924 15.9128 32.0066 20.5 32C25.0879 32.0065 29.5684 30.5917 33.3425 27.9448L33.1785 24.9504L35.2718 26.4336C36.7996 25.0968 38.1455 23.5599 39.2741 21.8632C39.9272 20.8802 40.5043 19.8472 41 18.7736C40.7639 17.6308 40.4348 16.5099 40.016 15.4224Z" fill="black"/>
</g>
<defs>
<clipPath id="clip0">
<rect width="41" height="32" fill="white"/>
</clipPath>
</defs>
</svg>
