<svg width="80" height="80" viewBox="0 0 80 80" fill="none" xmlns="http://www.w3.org/2000/svg">
<path d="M69.3546 50.6931L53.5922 60.0317L47.5882 56.2376H55.1368C56.2922 56.2376 57.4002 55.7786 58.2172 54.9616C59.0342 54.1446 59.4932 53.0366 59.4932 51.8812C59.4932 50.7258 59.0342 49.6177 58.2172 48.8007C57.4002 47.9837 56.2922 47.5247 55.1368 47.5247H42.1704C40.6791 47.516 39.1992 47.7846 37.8061 48.3168L27.7229 52.895V51.8812C27.7229 51.5661 27.5977 51.2639 27.3749 51.0411C27.1521 50.8182 26.8499 50.6931 26.5348 50.6931H17.8219C17.5068 50.6931 17.2046 50.8182 16.9818 51.0411C16.759 51.2639 16.6338 51.5661 16.6338 51.8812V71.6832C16.6338 71.9983 16.759 72.3005 16.9818 72.5233C17.2046 72.7461 17.5068 72.8713 17.8219 72.8713H26.5348C26.8499 72.8713 27.1521 72.7461 27.3749 72.5233C27.5977 72.3005 27.7229 71.9983 27.7229 71.6832V70.495H52.3486C53.9072 70.4976 55.4266 70.0069 56.6892 69.0931L73.5288 57.0297C74.2328 56.4228 74.6918 55.5804 74.8201 54.6599C74.9483 53.7393 74.7371 52.8036 74.2258 52.0274C73.7145 51.2512 72.9381 50.6877 72.0416 50.4422C71.1452 50.1966 70.19 50.2858 69.3546 50.6931ZM25.3467 70.495H19.01V53.0693H25.3467V70.495ZM72.1506 55.1366L55.3031 67.1683C54.4431 67.7887 53.409 68.1213 52.3486 68.1188H27.7229V55.501L38.717 50.5346C39.8194 50.1131 40.9901 49.8983 42.1704 49.901H55.1368C55.6619 49.901 56.1656 50.1096 56.537 50.481C56.9083 50.8523 57.117 51.356 57.117 51.8812C57.117 52.4064 56.9083 52.91 56.537 53.2814C56.1656 53.6527 55.6619 53.8614 55.1368 53.8614H43.4853C43.2274 53.8611 42.9765 53.9446 42.7703 54.0995C42.5641 54.2544 42.4139 54.4721 42.3424 54.7198C42.2708 54.9676 42.2818 55.2318 42.3737 55.4728C42.4655 55.7137 42.6333 55.9182 42.8516 56.0554L52.9348 62.3921C53.1218 62.5069 53.337 62.5678 53.5566 62.5678C53.7761 62.5678 53.9913 62.5069 54.1783 62.3921L70.5744 52.6574C70.8955 52.4693 71.2767 52.4118 71.6389 52.497C72.0012 52.5822 72.3169 52.8035 72.5205 53.115C72.7241 53.4266 72.8001 53.8045 72.7327 54.1705C72.6653 54.5365 72.4597 54.8626 72.1585 55.0812L72.1506 55.1366Z" fill="black"/>
<path d="M74.8513 41.1882H72.079C71.8789 33.9072 69.0827 26.9377 64.1951 21.5373C59.3075 16.137 52.6505 12.6617 45.4255 11.7387C46.0881 10.9978 46.522 10.0811 46.675 9.09909C46.8281 8.11707 46.6936 7.11176 46.2878 6.2045C45.882 5.29724 45.2223 4.52681 44.3884 3.98622C43.5544 3.44562 42.5818 3.15796 41.5879 3.15796C40.594 3.15796 39.6214 3.44562 38.7874 3.98622C37.9535 4.52681 37.2938 5.29724 36.888 6.2045C36.4823 7.11176 36.3478 8.11707 36.5008 9.09909C36.6538 10.0811 37.0877 10.9978 37.7503 11.7387C30.5233 12.6584 23.8634 16.1325 18.9739 21.5333C14.0845 26.9341 11.2877 33.9055 11.0889 41.1882H7.52454C7.20944 41.1882 6.90723 41.3133 6.68442 41.5361C6.4616 41.759 6.33643 42.0612 6.33643 42.3763C6.33643 42.6914 6.4616 42.9936 6.68442 43.2164C6.90723 43.4392 7.20944 43.5644 7.52454 43.5644H74.8513C75.1664 43.5644 75.4686 43.4392 75.6914 43.2164C75.9142 42.9936 76.0394 42.6914 76.0394 42.3763C76.0394 42.0612 75.9142 41.759 75.6914 41.5361C75.4686 41.3133 75.1664 41.1882 74.8513 41.1882ZM41.584 5.54459C42.1323 5.54459 42.6682 5.70718 43.1241 6.01181C43.58 6.31643 43.9354 6.7494 44.1452 7.25597C44.355 7.76253 44.4099 8.31995 44.303 8.85771C44.196 9.39548 43.932 9.88946 43.5442 10.2772C43.1565 10.6649 42.6626 10.9289 42.1248 11.0359C41.587 11.1428 41.0296 11.0879 40.523 10.8781C40.0165 10.6683 39.5835 10.313 39.2789 9.85706C38.9743 9.40117 38.8117 8.86517 38.8117 8.31687C38.8117 7.58162 39.1038 6.87648 39.6237 6.35657C40.1436 5.83667 40.8487 5.54459 41.584 5.54459ZM41.584 13.8614C48.9045 13.8645 55.9357 16.72 61.1855 21.822C66.4354 26.9239 69.4905 33.8707 69.7028 41.1882H13.4651C13.6774 33.8707 16.7325 26.9239 21.9824 21.822C27.2322 16.72 34.2634 13.8645 41.584 13.8614Z" fill="black"/>
<path d="M35.1998 19.4931C31.9359 20.4172 28.9128 22.0419 26.341 24.2539C23.7692 26.4659 21.7106 29.2121 20.3087 32.301C20.2298 32.4449 20.1817 32.6036 20.1672 32.7671C20.1528 32.9306 20.1723 33.0953 20.2247 33.2508C20.277 33.4063 20.3611 33.5493 20.4714 33.6708C20.5818 33.7923 20.7161 33.8895 20.866 33.9565C21.0158 34.0234 21.1779 34.0586 21.342 34.0598C21.5061 34.061 21.6687 34.0282 21.8195 33.9635C21.9703 33.8987 22.106 33.8035 22.2182 33.6836C22.3303 33.5638 22.4164 33.4221 22.4711 33.2673C23.7332 30.4963 25.5838 28.0335 27.8942 26.0501C30.2045 24.0667 32.9191 22.6103 35.8493 21.7822C35.9996 21.7395 36.14 21.6677 36.2625 21.5708C36.3851 21.4738 36.4873 21.3537 36.5635 21.2173C36.6396 21.0809 36.6881 20.9308 36.7062 20.7756C36.7243 20.6204 36.7117 20.4632 36.6691 20.3129C36.6264 20.1626 36.5546 20.0221 36.4577 19.8996C36.3607 19.777 36.2406 19.6748 36.1042 19.5987C35.9678 19.5225 35.8177 19.474 35.6625 19.4559C35.5073 19.4378 35.3501 19.4504 35.1998 19.4931Z" fill="black"/>
</svg>
