<?xml version="1.0" encoding="iso-8859-1"?>
<!-- Generator: Adobe Illustrator 19.0.0, SVG Export Plug-In . SVG Version: 6.00 Build 0)  -->
<svg version="1.1" id="Capa_1" xmlns="http://www.w3.org/2000/svg" xmlns:xlink="http://www.w3.org/1999/xlink" x="0px" y="0px"
	 viewBox="0 0 511.998 511.998" style="enable-background:new 0 0 511.998 511.998;" xml:space="preserve">
<g>
	<g>
		<path d="M79.604,422.77c-5.522,0-10,4.477-10,10v0.437c0,5.523,4.478,10,10,10c5.523,0,10-4.477,10-10v-0.437
			C89.604,427.248,85.127,422.77,79.604,422.77z"/>
	</g>
</g>
<g>
	<g>
		<path d="M269.943,422.77c-5.522,0-10,4.477-10,10v0.437c0,5.523,4.478,10,10,10c5.522,0,10-4.477,10-10v-0.437
			C279.943,427.248,275.466,422.77,269.943,422.77z"/>
	</g>
</g>
<g>
	<g>
		<path d="M482,156.405h-7.691c-2.246-9.959-7.824-18.887-16.058-25.363c-8.328-6.552-18.452-9.897-28.749-9.676
			c-6.564-17.019-23.213-28.937-42.053-28.937c-11.174,0-21.696,4.074-29.816,11.262c-8.903-7.051-21.209-11.262-34.093-11.262
			c-14.383,0-35.901,8.694-45.979,23.393c-15.371-3.791-31.611-0.795-44.12,8.522c-8.377,6.239-14.068,14.624-16.709,24.198V27.358
			C216.732,12.273,204.459,0,189.373,0h-34.518c-15.086,0-27.359,12.273-27.359,27.358v242.017h-17.152c-5.522,0-10,4.477-10,10
			v42.527H56.289c-14.238,0-20.169,11.317-23.712,18.079l-15.501,29.576c-2.957,5.642-4.696,15.065,0.134,23.048
			c1.317,2.178,3.769,5.197,7.97,7.38l-12.298,41.872c-5.859,17.513-10.689,41.51-0.622,56.783
			c3.605,5.47,10.745,12.222,24.287,13.325c0.271,0.022,0.541,0.033,0.813,0.033h274.829c0.271,0,0.542-0.011,0.813-0.033
			c4.627-0.377,8.49-1.423,11.737-2.842h103.438c15.669,0,28.508-10.566,29.864-24.577l23.007-237.513h0.953
			c12.994,0,23.566-10.572,23.566-23.566V179.97C505.566,166.976,494.994,156.405,482,156.405z M245.388,140.384
			c9.116-6.791,22.162-8.025,33.233-3.148c2.657,1.171,5.691,1.129,8.315-0.115c2.624-1.244,4.577-3.567,5.353-6.365
			c2.568-9.266,20.065-18.326,31.251-18.326c10.759,0,21.683,4.858,25.973,11.551c1.839,2.869,5.012,4.603,8.419,4.603
			c3.407,0,6.58-1.735,8.419-4.603c4.637-7.233,12.523-11.551,21.098-11.551c12.34,0,22.987,9.188,24.767,21.373
			c0.407,2.784,1.967,5.267,4.299,6.842c2.332,1.575,5.22,2.095,7.951,1.432c7.515-1.819,15.32-0.112,21.419,4.686
			c3.307,2.6,5.836,5.917,7.459,9.644H235.457C236.565,149.966,239.945,144.438,245.388,140.384z M147.496,27.358
			c0-4.058,3.302-7.358,7.359-7.358h34.518c3.989,0,7.359,3.37,7.359,7.358v242.017h-49.236V27.358z M120.344,289.375h103.542
			v32.527H120.344V289.375z M34.791,378.84l15.501-29.576c3.525-6.728,4.444-7.362,5.997-7.362h237.668
			c1.656,0,2.645,0.966,5.998,7.363l13.628,26.003c2.1,4.006,1.863,6.035,1.595,6.479c-0.3,0.495-1.437,1.025-2.651,1.025h-0.504
			c-0.032,0-0.065,0-0.098,0H37.72c-2.305,0-3.217-0.451-3.421-0.573C34.095,381.68,34.152,380.058,34.791,378.84z M320.587,487.634
			c-1.066,1.62-3.141,3.817-8.839,4.365h-31.35v-27.898c0-5.523-4.478-10-10-10c-5.522,0-10,4.477-10,10v27.898h-75.625v-47.493
			c0-5.523-4.478-10-10-10c-5.523,0-10,4.477-10,10v47.493H89.149v-27.898c0-5.523-4.478-10-10-10c-5.522,0-10,4.477-10,10v27.898
			h-31.35c-5.698-0.549-7.773-2.745-8.841-4.365c-4.295-6.517-3.194-21.318,2.944-39.593c0.041-0.122,0.079-0.244,0.115-0.366
			l13.187-44.903h259.138l13.186,44.903c0.036,0.123,0.074,0.245,0.115,0.366C323.782,466.316,324.882,481.118,320.587,487.634z
			 M438.134,482.619c-0.309,3.198-4.119,6.505-9.958,6.505h-86.678c3.987-14.617-0.083-33.071-4.832-47.266l-12.372-42.128
			c3.283-1.838,6.064-4.438,7.996-7.631c2.54-4.199,5.789-13.175-0.992-26.115l-13.629-26.004
			c-3.544-6.761-9.477-18.078-23.712-18.078h-50.071v-42.527c0-5.523-4.478-10-10-10h-17.153v-22.341h41.178
			c4.914,37.195,36.807,66,75.321,66c38.515,0,70.407-28.805,75.321-66h52.4L438.134,482.619z M278.143,247.034h110.176
			c-4.73,26.121-27.623,46-55.088,46C305.766,293.034,282.874,273.155,278.143,247.034z M482,227.034H216.732v-50.629h8.611
			c0.007,0,0.014,0.001,0.02,0.001c0.005,0,0.011-0.001,0.016-0.001h256.62c1.934,0,3.566,1.633,3.566,3.565v43.498h0.001
			C485.566,225.401,483.933,227.034,482,227.034z"/>
	</g>
</g>
<g>
</g>
<g>
</g>
<g>
</g>
<g>
</g>
<g>
</g>
<g>
</g>
<g>
</g>
<g>
</g>
<g>
</g>
<g>
</g>
<g>
</g>
<g>
</g>
<g>
</g>
<g>
</g>
<g>
</g>
</svg>
