<svg height="512pt" viewBox="-111 0 512 512.00003" width="512pt" xmlns="http://www.w3.org/2000/svg"><path d="m273.066406 59.734375c9.425782 0 17.066406-7.640625 17.066406-17.066406v-25.601563c0-9.425781-7.640624-17.066406-17.066406-17.066406h-230.398437c-14.140625 0-25.601563 11.460938-25.601563 25.601562v42.664063c0 4.714844 3.820313 8.535156 8.535156 8.535156 23.550782.027344 42.636719 19.113281 42.664063 42.664063v74.132812c-.261719 11.152344-7.488281 20.941406-18.074219 24.472656-30.113281 11.210938-50.1171872 39.929688-50.191406 72.0625v196.265626c0 14.140624 11.460938 25.601562 25.601562 25.601562h187.730469c14.140625 0 25.601563-11.460938 25.601563-25.601562v-196.265626c-.074219-32.132812-20.078125-60.851562-50.191406-72.0625-10.585938-3.53125-17.8125-13.320312-18.074219-24.472656v-86.929687c0-7.070313 5.730469-12.800781 12.796875-12.800781 7.070312 0 12.800781 5.730468 12.800781 12.800781v4.265625c0 .304687.019531.609375.050781.914062 7.148438 42.992188 31.070313 81.390625 66.511719 106.757813 6.5 4.800781 15.492187 4.308593 21.425781-1.175781 6.121094-5.425782 7.53125-14.433594 3.363282-21.46875-15.707032-26.949219-28.289063-55.597657-37.503907-85.394532-1.773437-5.789062-2.636719-11.816406-2.5625-17.867187l.359375-32.964844zm0-17.066406h-25.601562v-25.601563h25.601562zm-119.464844 110.933593h-68.269531v-25.601562h68.269531zm29.226563 80.476563c23.425781 8.71875 38.984375 31.058594 39.039063 56.054687v196.265626c0 4.714843-3.820313 8.535156-8.535157 8.535156h-187.730469c-4.714843 0-8.535156-3.820313-8.535156-8.535156v-196.265626c.054688-24.996093 15.613282-47.335937 39.039063-56.054687 17.328125-5.953125 29.03125-22.164063 29.226562-40.480469v-22.929687h25.601563v110.933593h-59.734375c-9.425781 0-17.066407 7.640626-17.066407 17.066407v162.132812c0 9.425781 7.640626 17.066407 17.066407 17.066407h136.535156c9.425781 0 17.066406-7.640626 17.066406-17.066407v-162.132812c0-9.425781-7.640625-17.066407-17.066406-17.066407h-59.734375v-110.933593h25.601562v22.929687c.195313 18.316406 11.898438 34.527344 29.226563 40.480469zm-63.363281 141.386719c4.714844 0 8.535156-3.820313 8.535156-8.53125v-68.265625h59.734375v162.132812h-136.535156v-162.132812h59.734375v68.265625c0 4.710937 3.820312 8.53125 8.53125 8.53125zm64-298.664063c-16.492188 0-29.863282 13.371094-29.863282 29.867188v4.265625h-68.875c-3.828124-26.195313-24.398437-46.765625-50.59375-50.59375v-34.738282c0-4.714843 3.820313-8.535156 8.535157-8.535156h187.730469v25.601563h-8.265626c-14.207031-.058594-25.777343 11.394531-25.867187 25.597656v11.53125c-3.988281-1.949219-8.363281-2.972656-12.800781-2.996094zm89.398437 127.792969v.207031c-31.214843-22.671875-52.523437-56.46875-59.53125-94.40625v-42.128906c.082031-4.78125 4.015625-8.597656 8.800781-8.53125h8.710938l-.339844 32.792969c-.09375 7.800781 1.007813 15.574218 3.273438 23.039062 9.609375 31.0625 22.71875 60.933594 39.085937 89.027344zm0 0"/></svg>